<?xml version="1.0" standalone="no"?>
<!DOCTYPE svg PUBLIC "-//W3C//DTD SVG 1.1//EN" "http://www.w3.org/Graphics/SVG/1.1/DTD/svg11.dtd" >
<svg xmlns="http://www.w3.org/2000/svg">
<metadata>
This is a custom SVG webfont generated by Font Squirrel.
Copyright   : Copyright c 2011 by Matt Grey Design All rights reserved Note the company logos in the icons are copyright of their respective owners Original vectors from  httpicondockcomfreevectorsocialmediaicons
Designer    : Matt Grey
Foundry     : Matt Grey Design
Foundry URL : httpwwwmattgreydesigncom
</metadata>
<defs>
<font id="SocialNetworkingIconsRegular" horiz-adv-x="2048" >
<font-face units-per-em="2048" ascent="1675" descent="-373" />
<missing-glyph horiz-adv-x="1105" />
<glyph unicode=" "  horiz-adv-x="1105" />
<glyph unicode="&#x09;" horiz-adv-x="1105" />
<glyph unicode="&#xa0;" horiz-adv-x="1105" />
<glyph unicode="!" />
<glyph unicode="&#x22;" />
<glyph unicode="#" />
<glyph unicode="$" />
<glyph unicode="%" />
<glyph unicode="&#x26;" />
<glyph unicode="'" />
<glyph unicode="(" />
<glyph unicode=")" />
<glyph unicode="*" />
<glyph unicode="+" />
<glyph unicode="," />
<glyph unicode="-" />
<glyph unicode="." />
<glyph unicode="/" horiz-adv-x="2213" d="M0 -29v1362q0 70 26.5 132.5t73.5 109.5t108.5 73.5t133.5 26.5h1364q70 0 132.5 -26.5t109.5 -73.5t73.5 -109.5t26.5 -132.5v-1362q0 -72 -26.5 -133t-73.5 -108t-109.5 -74t-132.5 -27h-1364q-72 0 -133.5 27t-108.5 74t-73.5 108t-26.5 133zM518 20h244l563 1272 h-244zM1149 213q0 -84 58.5 -142.5t144.5 -58.5q84 0 142 58.5t58 142.5q0 86 -58 144.5t-142 58.5q-86 0 -144.5 -58.5t-58.5 -144.5z" />
<glyph unicode="0" />
<glyph unicode="1" />
<glyph unicode="2" />
<glyph unicode="3" />
<glyph unicode="4" />
<glyph unicode="5" />
<glyph unicode="6" />
<glyph unicode="7" />
<glyph unicode="8" />
<glyph unicode="9" />
<glyph unicode=":" horiz-adv-x="2213" d="M0 -29v1362q0 70 26.5 132.5t73.5 109.5t108.5 73.5t133.5 26.5h1364q70 0 132.5 -26.5t109.5 -73.5t73.5 -109.5t26.5 -132.5v-1362q0 -72 -26.5 -133t-73.5 -108t-109.5 -74t-132.5 -27h-1364q-72 0 -133.5 27t-108.5 74t-73.5 108t-26.5 133zM334 651 q0 -61 23.5 -116.5t64.5 -96.5t96 -64.5t117 -23.5q61 0 116.5 23.5t96.5 64.5t64.5 96.5t23.5 116.5t-23.5 116.5t-64.5 96.5t-96.5 64.5t-116.5 23.5t-116.5 -23.5t-96.5 -64.5t-64.5 -96.5t-23.5 -116.5zM1112 651q0 -61 23.5 -116.5t64.5 -96.5t96.5 -64.5t116.5 -23.5 t116.5 23.5t96.5 64.5t64.5 96.5t23.5 116.5t-23.5 116.5t-64.5 96.5t-96 64.5t-117 23.5q-61 0 -116.5 -23.5t-96.5 -64.5t-64.5 -96.5t-23.5 -116.5z" />
<glyph unicode=";" />
<glyph unicode="&#x3c;" horiz-adv-x="2213" d="M0 -29v1362q0 70 26.5 132.5t73.5 109.5t108.5 73.5t133.5 26.5h1364q70 0 132.5 -26.5t109.5 -73.5t73.5 -109.5t26.5 -132.5v-1362q0 -72 -26.5 -133t-73.5 -108t-109.5 -74t-132.5 -27h-1364q-72 0 -133.5 27t-108.5 74t-73.5 108t-26.5 133zM385 651q0 -47 17.5 -88 t48 -71.5t71.5 -48t88 -17.5q41 0 78 14.5t68 38.5l458 -229q-2 -4 -2 -12q0 -47 17.5 -88t48.5 -72t72 -48.5t88 -17.5t88 17.5t71.5 48.5t49 71.5t18.5 88.5q0 47 -18.5 88t-49 71.5t-71.5 48t-88 17.5q-80 0 -146 -53l-458 229q2 4 2 12t-2 13l458 229q66 -53 146 -53 q47 0 88 17t71.5 48t49 72t18.5 88t-18.5 88t-49 71.5t-71.5 49t-88 18.5t-88 -18.5t-72 -49t-48.5 -71.5t-17.5 -88q0 -8 2 -12l-458 -230q-31 25 -68 39.5t-78 14.5q-47 0 -88 -17.5t-71.5 -48.5t-48 -72t-17.5 -88z" />
<glyph unicode="=" />
<glyph unicode="&#x3e;" horiz-adv-x="2213" d="M0 -29v1362q0 70 26.5 132.5t73.5 109.5t108.5 73.5t133.5 26.5h1364q70 0 132.5 -26.5t109.5 -73.5t73.5 -109.5t26.5 -132.5v-1362q0 -72 -26.5 -133t-73.5 -108t-109.5 -74t-132.5 -27h-1364q-72 0 -133.5 27t-108.5 74t-73.5 108t-26.5 133zM319 492q0 -33 33 -33 h191l147 256h-338q-14 0 -23.5 -9.5t-9.5 -21.5v-192zM430 39q-2 -14 5 -18.5t18 4.5l108 73q23 16 -2 35l-84 47q-10 6 -19.5 2t-11.5 -18zM488.5 236.5q3.5 -13.5 15.5 -19.5l82 -49q12 -6 24.5 -2t20.5 14l385 674q6 10 3 23.5t-15 19.5l-82 47q-12 8 -24.5 4t-20.5 -14 l-385 -674q-7 -10 -3.5 -23.5zM881 459h350l-119 256h-84zM983 1215.5q12 -48.5 36.5 -110t52.5 -123.5t44 -99q10 -25 30.5 -70t44 -99.5t50.5 -111.5t50.5 -104t42 -79t26.5 -36q25 -12 38 -9t29 11q8 2 18.5 9t19 17.5t10.5 24t-7 27.5q-8 14 -38.5 73.5t-71.5 136.5 t-83 153.5t-73 123.5t-63.5 105.5t-63.5 107.5t-54.5 82t-33.5 27q-16 -8 -4 -56.5zM1397 715q27 -47 50 -91t40 -77q10 -23 18 -38t13 -22q8 -14 10 -28h168q33 0 33 33v192q0 12 -9.5 21.5t-23.5 9.5h-299zM1413 312.5q-4 -13.5 4 -25.5l51 -80q8 -12 22.5 -16.5t27.5 4.5 l32 20q12 8 16.5 22.5t-1.5 26.5l-41 76q-6 14 -19.5 18t-25.5 -2l-49 -24q-13 -6 -17 -19.5zM1510 117.5q3 -15.5 16 -33.5q14 -18 33.5 -29.5t39 -18.5t35 -15.5t19.5 -20.5q4 47 1 80t-10.5 54.5t-18.5 32.5t-23 15q-29 10 -70 -8q-4 -4 -11.5 -12t-10.5 -18.5t0 -26z " />
<glyph unicode="?" />
<glyph unicode="@" />
<glyph unicode="A" horiz-adv-x="2213" d="M0 -29v1362q0 70 26.5 132.5t73.5 109.5t108.5 73.5t133.5 26.5h1364q70 0 132.5 -26.5t109.5 -73.5t73.5 -109.5t26.5 -132.5v-1362q0 -72 -26.5 -133t-73.5 -108t-109.5 -74t-132.5 -27h-1364q-72 0 -133.5 27t-108.5 74t-73.5 108t-26.5 133zM484 662q-2 -28 -2 -57 q0 -60 11 -120q15 -88 48.5 -168.5t74.5 -140.5q20 -29 43 -58.5t47.5 -53t53.5 -37.5q25 -13 52 -13h7q31 0 53.5 8.5t45 17.5t48 17.5t62.5 8.5t62.5 -8.5t48 -17.5t46 -17.5t56.5 -8.5q66 2 111 50.5t86 107.5q47 70 67.5 125t20.5 59l-27 14q-27 13 -59.5 43.5t-59 80 t-26.5 120.5q0 61 20.5 106.5t46 76t48 46t24.5 17.5q-29 41 -62.5 65.5t-67.5 38t-61.5 17.5t-44.5 6q-7 0 -14 1q-29 0 -58 -7q-36 -8 -69 -20.5t-59.5 -22.5t-44.5 -10t-43 9t-51.5 19.5t-56.5 18.5t-60 8q-82 0 -154 -44t-112 -116q-44 -73 -51 -161zM1001 1001 q7 -1 15 0q46 0 90 23q51 27 86 68t54 95q15 41 15 84q0 14 -1 27q-49 -4 -101.5 -30.5t-87.5 -67.5q-33 -37 -54 -90q-17 -41 -17 -84q0 -13 1 -25z" />
<glyph unicode="B" horiz-adv-x="2213" d="M0 -29v1362q0 70 26.5 132.5t73.5 109.5t108.5 73.5t133.5 26.5h1364q70 0 132.5 -26.5t109.5 -73.5t73.5 -109.5t26.5 -132.5v-1362q0 -72 -26.5 -133t-73.5 -108t-109.5 -74t-132.5 -27h-1364q-72 0 -133.5 27t-108.5 74t-73.5 108t-26.5 133zM387 416q0 -84 32 -158 t86 -128t128 -86t158 -32h464q82 0 156 32t128 86t87 128t33 158l2 325l-2 19l-12 22l-19 15q-8 6 -31.5 7t-51 2t-53.5 4t-38 13q-16 16 -22.5 44t-10.5 67q-4 37 -8 58.5t-8 34.5t-9 22.5t-12 21.5q-20 45 -57 83t-80 66.5t-89 47t-85 24.5h-282q-84 0 -158 -31.5 t-128 -87t-86 -129t-32 -157.5v-471zM719 422q0 31 22.5 53.5t53.5 22.5h456q33 0 54.5 -22.5t21.5 -53.5q0 -33 -21.5 -55.5t-54.5 -22.5h-456q-31 0 -53.5 22.5t-22.5 55.5zM719 883q0 33 22.5 55.5t53.5 22.5h225q33 0 55.5 -23t22.5 -55q0 -31 -22.5 -53.5t-55.5 -22.5 h-225q-31 0 -53.5 22.5t-22.5 53.5z" />
<glyph unicode="C" horiz-adv-x="2213" d="M0 -29v1362q0 70 26.5 132.5t73.5 109.5t108.5 73.5t133.5 26.5h1364q70 0 132.5 -26.5t109.5 -73.5t73.5 -109.5t26.5 -132.5v-1362q0 -72 -26.5 -133t-73.5 -108t-109.5 -74t-132.5 -27h-1364q-72 0 -133.5 27t-108.5 74t-73.5 108t-26.5 133zM256 436q0 -80 61 -129 v256q-61 -49 -61 -127zM381 274q20 -6 47 -6h16v334q-4 0 -8 1t-8 1q-12 0 -24.5 -2t-22.5 -6v-322zM508 268h65v422q-43 -51 -51 -115q-6 4 -14 9v-316zM637 268h63v512q-16 -4 -32.5 -12t-30.5 -18v-482zM764 268h65v525q-10 2 -20 2h-21h-24v-527zM860 268h96v527 q-8 -10 -15 -18.5t-13 -18.5q-16 10 -32.5 16t-35.5 12v-518zM989 268h608q96 6 140.5 58.5t44.5 124.5q0 78 -51.5 131t-128.5 53q-39 0 -74 -14q-6 59 -34 111t-71 91t-99 61.5t-120 22.5q-61 0 -116.5 -21.5t-98.5 -58.5v-559z" />
<glyph unicode="D" horiz-adv-x="2213" d="M0 -29v1362q0 70 26.5 132.5t73.5 109.5t108.5 73.5t133.5 26.5h1364q70 0 132.5 -26.5t109.5 -73.5t73.5 -109.5t26.5 -132.5v-1362q0 -72 -26.5 -133t-73.5 -108t-109.5 -74t-132.5 -27h-1364q-72 0 -133.5 27t-108.5 74t-73.5 108t-26.5 133zM63 715h898v897h-619 q-57 0 -108.5 -21.5t-89.5 -59.5t-59.5 -89t-21.5 -109v-618zM1087 -307h619q57 0 108.5 21.5t89.5 59.5t59.5 89t21.5 108v617h-898v-895z" />
<glyph unicode="E" />
<glyph unicode="F" horiz-adv-x="2213" d="M0 -29v1362q0 70 26.5 132.5t73.5 109.5t108.5 73.5t133.5 26.5h1364q70 0 132.5 -26.5t109.5 -73.5t73.5 -109.5t26.5 -132.5v-1362q0 -72 -26.5 -133t-73.5 -108t-109.5 -74t-132.5 -27h-1364q-72 0 -133.5 27t-108.5 74t-73.5 108t-26.5 133zM256 268h256v-639h256 v639h129h127h129v-639h256v639h256v256h-256v127q0 57 27.5 94t60.5 37h217v254h-217q-72 0 -134.5 -30.5t-109.5 -83t-73.5 -122t-26.5 -149.5v-127h-129h-127h-129v127q0 57 28.5 94t59.5 37h217v254h-217q-72 0 -134.5 -30.5t-108.5 -83t-73.5 -122t-27.5 -149.5v-127 h-256v-256z" />
<glyph unicode="G" horiz-adv-x="2213" d="M0 -29v1362q0 70 26.5 132.5t73.5 109.5t108.5 73.5t133.5 26.5h1364q70 0 132.5 -26.5t109.5 -73.5t73.5 -109.5t26.5 -132.5v-1362q0 -72 -26.5 -133t-73.5 -108t-109.5 -74t-132.5 -27h-1364q-72 0 -133.5 27t-108.5 74t-73.5 108t-26.5 133zM641 252 q0 -63 30.5 -118.5t84 -96.5t124 -64.5t152.5 -23.5t153.5 23.5t125 64.5t84 96t30.5 119q0 63 -30.5 119.5t-84 97.5t-125 65.5t-153.5 24.5q-8 0 -15 -1t-16 -1q-12 31 -12 66q0 18 3 41.5t9 23.5h11q68 0 127 25.5t104 70.5t70.5 104.5t25.5 127.5q0 33 -13 69.5 t-30 53.5l113 61v219l-235 -131q-39 27 -80 41t-93 14q-68 0 -126 -25.5t-102 -69.5t-68.5 -104.5t-24.5 -127.5q0 -76 32.5 -141.5t88.5 -110.5q-31 -66 -31 -139q0 -35 7 -67t20 -60q-72 -43 -114 -106.5t-42 -139.5zM858 252q0 49 51.5 84t122.5 35q72 0 124 -35t52 -84 q0 -47 -52 -82t-124 -35t-123 35t-51 82zM858 1016q0 63 45 108t109 45q63 0 107 -45t44 -108t-44 -107.5t-107 -44.5t-108.5 44.5t-45.5 107.5z" />
<glyph unicode="H" />
<glyph unicode="I" />
<glyph unicode="J" horiz-adv-x="2213" d="M0 -29v1362q0 70 26.5 132.5t73.5 109.5t108.5 73.5t133.5 26.5h1364q70 0 132.5 -26.5t109.5 -73.5t73.5 -109.5t26.5 -132.5v-1362q0 -72 -26.5 -133t-73.5 -108t-109.5 -74t-132.5 -27h-1364q-72 0 -133.5 27t-108.5 74t-73.5 108t-26.5 133zM281 616q0 -49 25.5 -90 t66.5 -63q-4 -16 -6 -32.5t-2 -33.5q0 -94 51 -176t139 -143.5t206 -97t253 -35.5q133 0 250.5 35.5t206 97t139.5 143.5t51 176q0 14 -1 27.5t-3 28.5q49 23 79.5 66.5t30.5 96.5q0 37 -14 70t-39.5 57.5t-60.5 39t-74 14.5q-82 0 -137 -60q-80 49 -179.5 80t-209.5 35 l53 285l176 -56q0 -6 -1 -11t-1 -11q0 -72 50 -122t122 -50t122 50t50 122q0 37 -13.5 67.5t-37 54t-55 37t-66.5 13.5q-49 0 -88 -23.5t-61 -64.5l-213 65q-12 6 -27 -2q-10 -6 -14 -22l-62 -332q-111 -4 -210 -30.5t-179 -73.5q-53 49 -129 49q-39 0 -74 -14.5t-60.5 -39 t-39.5 -57.5t-14 -70zM705 569q0 35 24.5 59.5t58.5 24.5q35 0 59.5 -24.5t24.5 -59.5t-24.5 -59.5t-59.5 -24.5t-59 24.5t-24 59.5zM739 306.5q0 -15.5 11 -25.5q43 -41 112 -60q74 -23 160 -22q86 0 158 22q72 18 112 60q10 10 10.5 25.5t-10.5 25.5q-10 10 -25.5 10 t-25.5 -10t-31.5 -21.5t-50.5 -19.5t-63.5 -13.5t-73.5 -5.5t-75 5.5t-64 13.5q-29 8 -49.5 19.5t-30.5 21.5t-26.5 10t-26.5 -10q-11 -10 -11 -25.5zM1174 569q0 35 24.5 59.5t58.5 24.5q35 0 59.5 -24.5t24.5 -59.5t-24.5 -59.5t-59.5 -24.5t-59 24.5t-24 59.5z" />
<glyph unicode="K" horiz-adv-x="2213" d="M0 -29v1362q0 70 26.5 132.5t73.5 109.5t108.5 73.5t133.5 26.5h1364q70 0 132.5 -26.5t109.5 -73.5t73.5 -109.5t26.5 -132.5v-1362q0 -72 -26.5 -133t-73.5 -108t-109.5 -74t-132.5 -27h-1364q-72 0 -133.5 27t-108.5 74t-73.5 108t-26.5 133zM45 -12 q0 -68 25.5 -126.5t69.5 -101.5t102.5 -68.5t126.5 -25.5h1308q66 0 124.5 25.5t102.5 68.5t69.5 101.5t25.5 126.5v317q-29 72 -98.5 125t-149.5 76q16 49 16 96q0 80 -35.5 151.5t-99 124t-147.5 83t-178 30.5q-78 0 -147.5 -20.5t-127 -57t-100.5 -87t-64 -109.5 q-39 41 -89 63.5t-109 22.5q-55 0 -104.5 -21.5t-86.5 -58.5t-58.5 -87t-21.5 -106v-14q-10 2 -22 3t-25 1q-90 0 -169 -39t-138 -106v-387z" />
<glyph unicode="L" horiz-adv-x="2213" d="M0 -29v1362q0 70 26.5 132.5t73.5 109.5t108.5 73.5t133.5 26.5h1364q70 0 132.5 -26.5t109.5 -73.5t73.5 -109.5t26.5 -132.5v-1362q0 -72 -26.5 -133t-73.5 -108t-109.5 -74t-132.5 -27h-1364q-72 0 -133.5 27t-108.5 74t-73.5 108t-26.5 133zM385 477q4 -96 60.5 -181 t151.5 -148.5t221 -99.5t269 -36q145 0 274.5 38t224.5 102.5t150.5 151.5t55.5 188q0 98 -55.5 186t-150.5 152.5t-224 102.5t-275 38q-129 0 -241.5 -29t-204.5 -80v365h-256v-750zM641 492q0 66 35 124t95 101t142 68.5t174 25.5t174 -25.5t143.5 -68.5t96.5 -101.5 t35 -123.5q0 -66 -35 -124.5t-96.5 -101.5t-143 -68.5t-174.5 -25.5q-92 0 -174 25.5t-142 68.5t-95 101.5t-35 124.5zM793 492q0 -43 22.5 -82t62.5 -68t94 -45t115 -16t115.5 16t94.5 45t63.5 68t23.5 82t-23.5 81.5t-63.5 67.5t-94 45t-116 16q-61 0 -115 -16t-94 -45 t-62.5 -67.5t-22.5 -81.5z" />
<glyph unicode="M" horiz-adv-x="2213" d="M0 -29v1362q0 70 26.5 132.5t73.5 109.5t108.5 73.5t133.5 26.5h1364q70 0 132.5 -26.5t109.5 -73.5t73.5 -109.5t26.5 -132.5v-1362q0 -72 -26.5 -133t-73.5 -108t-109.5 -74t-132.5 -27h-1364q-72 0 -133.5 27t-108.5 74t-73.5 108t-26.5 133zM281 117l32 12 q139 57 252 57q88 0 150.5 -28.5t115.5 -63.5l19 -14l154 524l-13 6q-16 10 -31.5 19.5t-31.5 17.5q-106 57 -209 58q-20 0 -29 -3q-61 -4 -115.5 -18t-89.5 -27q-12 -4 -23 -9t-24 -9l-8 -2zM451 711l30 14q78 31 141.5 45t120.5 14q84 0 143.5 -27.5t112.5 -62.5l19 -14 l151 516l-10 8q-2 0 -19.5 10.5t-43 22.5t-55 25.5t-56.5 19.5q-29 6 -57 10q-19 3 -39 3q-10 0 -21 -1q-119 0 -262 -61l-8 -2zM907 49l13 -6l27 -16q28 -16 71 -35t94 -34t98 -15q131 0 289 65l8 2l144 504l-31 -10q-135 -49 -256 -49q-106 0 -176 30.5t-111 63.5l-20 14z M1079 635l11 -6q143 -96 305 -97q131 0 272 66h2l6 4l150 516l-33 -14q-137 -59 -260 -60q-102 0 -173 31t-112 66l-20 14l-146 -506z" />
<glyph unicode="N" horiz-adv-x="2213" d="M0 -29v1362q0 70 26.5 132.5t73.5 109.5t108.5 73.5t133.5 26.5h1364q70 0 132.5 -26.5t109.5 -73.5t73.5 -109.5t26.5 -132.5v-1362q0 -72 -26.5 -133t-73.5 -108t-109.5 -74t-132.5 -27h-1364q-72 0 -133.5 27t-108.5 74t-73.5 108t-26.5 133zM385 203h375q61 0 117 12 q53 8 94 41q35 29 59 66q37 57 37 133q0 68 -33 120q-35 53 -96 74q39 20 63 47q39 51 39 123q0 76 -39 127q-63 90 -215 90h-401v-833zM575 348v221h181q55 0 82 -14q53 -25 53 -88q0 -78 -55 -105q-27 -14 -84 -14h-177zM575 707v184h156q61 0 98 -12q45 -18 45 -78 q0 -51 -34 -74q-37 -20 -88 -20h-177zM1130 520q0 -164 93 -237q88 -74 209 -74q141 0 225 86q51 57 57 108h-160q-10 -23 -32 -41q-29 -27 -86 -26q-53 0 -86 22q-57 33 -62 125h434q0 76 -6 119q-8 70 -47 123q-39 59 -102 88t-142 29q-129 0 -213 -84q-82 -82 -82 -238z M1257 918h336v83h-336v-83zM1292 586q6 57 41 92t92 35t93 -33q37 -29 43 -94h-269z" />
<glyph unicode="O" horiz-adv-x="2213" d="M0 -29v1362q0 70 26.5 132.5t73.5 109.5t108.5 73.5t133.5 26.5h1364q70 0 132.5 -26.5t109.5 -73.5t73.5 -109.5t26.5 -132.5v-1362q0 -72 -26.5 -133t-73.5 -108t-109.5 -74t-132.5 -27h-1364q-72 0 -133.5 27t-108.5 74t-73.5 108t-26.5 133zM256 715h256v-447 q0 -29 18.5 -47t44.5 -18h578l-192 192h-256v320h256l-353 385zM897 1100l190 -193h256v-319h-256l353 -385l352 385h-256v448q0 27 -18.5 45.5t-44.5 18.5h-576z" />
<glyph unicode="P" horiz-adv-x="2213" d="M0 -29v1362q0 70 26.5 132.5t73.5 109.5t108.5 73.5t133.5 26.5h1364q70 0 132.5 -26.5t109.5 -73.5t73.5 -109.5t26.5 -132.5v-1362q0 -72 -26.5 -133t-73.5 -108t-109.5 -74t-132.5 -27h-1364q-72 0 -133.5 27t-108.5 74t-73.5 108t-26.5 133zM451 66h337q6 37 17.5 91 t24 110.5t23.5 107.5t17 80h242q86 0 164 25.5t141.5 74.5t107.5 121t62 162q12 52 12 97q0 43 -11 81q-22 76 -68.5 125t-111.5 72.5t-128 23.5h-575zM920 678l71 319h166q61 0 95 -46q23 -31 23 -72q0 -20 -5 -41q-8 -33 -27.5 -63t-45.5 -51.5t-56.5 -33.5t-63.5 -12 h-157z" />
<glyph unicode="Q" horiz-adv-x="2213" d="M0 -29v1362q0 70 26.5 132.5t73.5 109.5t108.5 73.5t133.5 26.5h1364q70 0 132.5 -26.5t109.5 -73.5t73.5 -109.5t26.5 -132.5v-1362q0 -72 -26.5 -133t-73.5 -108t-109.5 -74t-132.5 -27h-1364q-72 0 -133.5 27t-108.5 74t-73.5 108t-26.5 133zM336 756q0 -82 36 -156 t100.5 -133t153.5 -104.5t193 -67.5q-6 -23 -17 -57.5t-26.5 -70.5t-36 -65.5t-43.5 -44.5q129 4 224.5 40t160.5 79q76 51 129 113q111 20 205 64t163 105.5t107.5 137.5t38.5 160q0 100 -54 188t-148.5 153.5t-221 103.5t-270.5 38q-143 0 -270 -38t-221.5 -103.5 t-148.5 -153.5t-54 -188zM967 1137h16q117 0 218.5 -31t178 -83t120.5 -123t44 -150q0 -113 -84 -204t-219 -138q94 57 149.5 139t55.5 180q0 78 -37 147.5t-101.5 124t-152.5 90.5t-188 48z" />
<glyph unicode="R" horiz-adv-x="2213" d="M0 -29v1362q0 70 26.5 132.5t73.5 109.5t108.5 73.5t133.5 26.5h1364q70 0 132.5 -26.5t109.5 -73.5t73.5 -109.5t26.5 -132.5v-1362q0 -72 -26.5 -133t-73.5 -108t-109.5 -74t-132.5 -27h-1364q-72 0 -133.5 27t-108.5 74t-73.5 108t-26.5 133zM403 674 q0 -154 45.5 -288t125 -234.5t187 -157.5t234.5 -57q5 0 10 -1q118 0 230 49q117 50 207 131t145 186.5t55 213.5q0 125 -32.5 214t-87 154.5t-126 114t-147.5 88.5q12 -56 12 -105q0 -47 -11 -89q-22 -86 -74 -141.5t-129 -75.5q-35 -9 -73 -9q-45 0 -93 13q86 133 108 226 q14 59 14 108q0 29 -5 55q-13 70 -48 126t-64.5 113.5t-38.5 126.5q-2 13 -2 27q0 60 32 137q-88 -59 -173.5 -165.5t-152 -235.5t-107.5 -266t-41 -258zM615 492q13 139 116 307q-13 -57 -13 -110q0 -36 6 -69q15 -83 52 -143.5t90.5 -95.5t108.5 -35q61 0 111.5 26.5 t88 76t65.5 115t46 141.5q68 -51 102.5 -119t38.5 -141q1 -10 1 -19q0 -63 -23 -124q-27 -71 -82 -127t-138 -92t-192 -38h-8q-106 0 -194 52q-92 54 -141 155q-38 79 -37 181q-1 29 2 59z" />
<glyph unicode="S" horiz-adv-x="2213" d="M0 -29v1362q0 70 26.5 132.5t73.5 109.5t108.5 73.5t133.5 26.5h1364q70 0 132.5 -26.5t109.5 -73.5t73.5 -109.5t26.5 -132.5v-1362q0 -72 -26.5 -133t-73.5 -108t-109.5 -74t-132.5 -27h-1364q-72 0 -133.5 27t-108.5 74t-73.5 108t-26.5 133zM193 1014 q0 -68 19 -131.5t54 -116.5q-4 -29 -6 -58.5t-2 -60.5q0 -158 59.5 -296t163 -240.5t242.5 -162t297 -59.5q35 0 69.5 4.5t69.5 10.5q109 -70 240 -70q94 0 177 36t145.5 97.5t98 144.5t35.5 177q0 72 -21.5 136t-57.5 120q4 25 6 50.5t2 51.5q0 158 -60.5 296t-164 241.5 t-242.5 163t-297 59.5q-31 0 -61.5 -3t-61.5 -7q-53 35 -116.5 54t-131.5 19q-94 0 -177 -35.5t-145.5 -98t-98 -145.5t-35.5 -177zM565 384q6 34 31 56.5t61 26.5h8q31 0 56 -15q29 -17 53.5 -41t45 -47.5t38.5 -35.5t60.5 -28.5t92.5 -21.5q15 -2 29 -2q36 0 72 9 q51 12 90 55q34 39 34 71q0 6 -1 12q-8 36 -45 62.5t-91.5 42t-105.5 23.5q-72 10 -148.5 35.5t-138 66.5t-98.5 100q-32 50 -31 114q0 11 1 22q6 76 36.5 134t76.5 98t104.5 62.5t119.5 28.5q46 4 89 5q99 0 174 -24q106 -34 188 -103q45 -41 58 -81q8 -25 9 -47 q0 -14 -3 -26q-8 -33 -33 -54.5t-54 -25.5q-4 -1 -7 0q-25 0 -54 24q-33 28 -73 61.5t-91 62t-114 28.5h-9q-62 0 -110 -27q-51 -30 -70 -70q-8 -18 -8 -36q0 -22 12 -45q23 -41 105 -61t166 -38t156.5 -45.5t130 -72.5t89.5 -121q18 -45 19 -90q0 -30 -8 -60 q-20 -75 -75.5 -134.5t-137.5 -99.5t-172 -44q-34 -1 -64 -1q-53 0 -97 4q-69 7 -122 25.5t-96 46t-82 64.5q-43 41 -58 82q-10 29 -10 54q0 11 2 21z" />
<glyph unicode="T" horiz-adv-x="2213" d="M0 -29v1362q0 70 26.5 132.5t73.5 109.5t108.5 73.5t133.5 26.5h1364q70 0 132.5 -26.5t109.5 -73.5t73.5 -109.5t26.5 -132.5v-1362q0 -72 -26.5 -133t-73.5 -108t-109.5 -74t-132.5 -27h-1364q-72 0 -133.5 27t-108.5 74t-73.5 108t-26.5 133zM575 782h193v-495 q0 -98 20 -148q23 -53 74 -96q27 -23 57.5 -39t69.5 -29q37 -12 70 -18t82 -6q82 0 157 16q37 10 78 24.5t88 35.5v221q-111 -70 -215 -70q-59 0 -106 29q-39 23 -53 61q-8 16 -9 54v98v362h328v254h-328v326h-200q-16 -111 -50 -180q-37 -72 -96 -121q-29 -27 -74 -45.5 t-86 -32.5v-201z" />
<glyph unicode="U" horiz-adv-x="2213" d="M0 -29v1362q0 70 26.5 132.5t73.5 109.5t108.5 73.5t133.5 26.5h1364q70 0 132.5 -26.5t109.5 -73.5t73.5 -109.5t26.5 -132.5v-1362q0 -72 -26.5 -133t-73.5 -108t-109.5 -74t-132.5 -27h-1364q-72 0 -133.5 27t-108.5 74t-73.5 108t-26.5 133zM12 496l1133 -824 q29 84 52.5 161t33.5 104q-20 16 -74 53q-45 33 -126 90t-216 156h514q8 27 29 88q16 53 47 148t82 253q51 -158 81.5 -253t47.5 -148q20 -61 29 -88h274l-432 1331l-348 -1071h-1127zM1028 166l283 -203l-107 -334l283 207l282 -207l-106 334l283 203h-351l-108 334 l-109 -334h-350z" />
<glyph unicode="V" horiz-adv-x="2213" d="M0 -29v1362q0 70 26.5 132.5t73.5 109.5t108.5 73.5t133.5 26.5h1364q70 0 132.5 -26.5t109.5 -73.5t73.5 -109.5t26.5 -132.5v-1362q0 -72 -26.5 -133t-73.5 -108t-109.5 -74t-132.5 -27h-1364q-72 0 -133.5 27t-108.5 74t-73.5 108t-26.5 133zM311 1087l353 -872h313 l346 872h-293l-207 -569l-211 569h-301zM1442 936q0 -59 43 -103.5t104 -44.5q59 0 103.5 44.5t44.5 103.5q0 61 -44 104t-104 43q-61 0 -104 -43t-43 -104z" />
<glyph unicode="W" horiz-adv-x="2213" d="M0 -29v1362q0 70 26.5 132.5t73.5 109.5t108.5 73.5t133.5 26.5h1364q70 0 132.5 -26.5t109.5 -73.5t73.5 -109.5t26.5 -132.5v-1362q0 -72 -26.5 -133t-73.5 -108t-109.5 -74t-132.5 -27h-1364q-72 0 -133.5 27t-108.5 74t-73.5 108t-26.5 133zM362 1008q0 -8 17 -9 q51 -6 61 -16q12 -12 35 -70q29 -74 70 -172t85 -200.5t86 -200.5t70 -174q16 -41 38 -44h3q20 0 43 46q14 27 33 67.5t40.5 88t44 96.5t40.5 92q18 -43 37.5 -92t40 -96.5t38 -88t30.5 -67.5q18 -41 40 -44h3q21 0 38 44q25 59 66 162q35 86 92 227t141 352q16 45 41 64 q23 23 80 26q10 0 11 11v26l-3 2h-274l-4 -2v-26q0 -4 4 -9q4 -2 8 -2l23 -2q23 -2 31 -5t16 -11q18 -23 4 -55l-242 -629l-10 4l-154 344l5 8l124 256q10 23 20.5 38.5t16.5 25.5q10 16 19.5 20t36.5 6q12 0 12 11v26l-4 2h-221l-4 -2v-26q0 -4 4 -9q2 -2 8 -2l10 -2 q23 -2 32 -6t13 -8q4 -6 5 -17.5t-11 -39.5l-96 -211l-88 196q-23 47 -24 63.5t32 22.5l16 2q12 0 13 9v28l-7 2h-235l-4 -2v-28q0 -8 18 -9q14 -2 22.5 -5t16.5 -13t16.5 -28.5t22.5 -51.5q2 -2 6 -10q4 -6 7 -16.5t12 -24.5l90 -197q4 -10 9 -21t9 -22q4 -12 8 -22 l-131 -289l-8 2q-78 180 -128 300t-81 194q-37 86 -55 139q-10 20 -10 37q0 23 41 26l30 2q12 0 13 11v24l-4 4h-297l-3 -4v-26z" />
<glyph unicode="X" horiz-adv-x="2213" d="M0 -29v1362q0 70 26.5 132.5t73.5 109.5t108.5 73.5t133.5 26.5h1364q70 0 132.5 -26.5t109.5 -73.5t73.5 -109.5t26.5 -132.5v-1362q0 -72 -26.5 -133t-73.5 -108t-109.5 -74t-132.5 -27h-1364q-72 0 -133.5 27t-108.5 74t-73.5 108t-26.5 133zM268 940q14 -55 52 -128 t95.5 -158t127.5 -175q109 -143 215 -211v-2q14 -51 35.5 -94t44.5 -72q27 -35 63.5 -77.5t78.5 -81.5t87 -63q36 -19 70 -19q9 0 18 2q20 2 34.5 33.5t24 73.5t13.5 85q3 29 2 51v21q18 -23 36.5 -42.5t39.5 -33.5q61 -43 106 -68.5t82 -31.5q11 -2 21 -2q25 0 48 11 q32 15 68 56q35 37 68 93.5t54.5 123t26.5 137.5q1 14 1 28q0 56 -17 110q0 2 2 2h-2q41 90 60.5 191.5t23.5 187.5q2 25 2 48q0 60 -11 117q-15 79 -49 137t-87 86q-33 17 -75 17q-25 0 -52 -6q-193 -45 -337 -184t-218 -346q-29 38 -47 38q-3 0 -6 -1q-10 -4 -13.5 -19.5 t-5.5 -38.5q-45 45 -95 79t-101 67q-59 37 -136 75.5t-149 64.5t-126 31q-8 1 -15 0q-42 0 -56 -26q-9 -16 -8 -40q-1 -20 6 -46zM955 721q3 33 18 39q3 1 7 1q12 0 28 -16q20 -20 45.5 -61t54.5 -100.5t59 -128.5q31 -72 46.5 -136.5t22.5 -114.5q6 -44 6 -72q0 -37 -3 -38 h-5q-30 0 -82 73q-56 79 -116 220q-31 70 -49 135.5t-26 115.5q-6 36 -6 64q-1 10 0 19z" />
<glyph unicode="Y" horiz-adv-x="2213" d="M0 -29v1362q0 70 26.5 132.5t73.5 109.5t108.5 73.5t133.5 26.5h1364q70 0 132.5 -26.5t109.5 -73.5t73.5 -109.5t26.5 -132.5v-1362q0 -72 -26.5 -133t-73.5 -108t-109.5 -74t-132.5 -27h-1364q-72 0 -133.5 27t-108.5 74t-73.5 108t-26.5 133zM31 -8q0 -68 26.5 -128.5 t71.5 -104.5t105.5 -70.5t127.5 -26.5h1321q68 0 128.5 26.5t105.5 70.5t70.5 104.5t25.5 128.5v350q0 63 -24.5 119.5t-66.5 98.5t-98.5 66.5t-119.5 24.5h-1362q-66 0 -122 -24.5t-98 -66.5t-66.5 -98t-24.5 -120v-350zM354 422v92h320v-92h-109v-535h-104v535h-107z M442 1483l140 -418v-272h116v286l138 404h-119l-74 -277h-6l-76 277h-119zM715 -37v385h92v-352q0 -16 6 -25q6 -6 18 -6q10 0 27 10q8 4 14 11l15 14v348h92v-461h-92v52q-14 -14 -26.5 -24.5t-29.5 -18.5q-27 -14 -53 -15q-33 0 -47 21q-16 18 -16 61zM844 922 q0 -63 41 -105q39 -37 108 -37q72 0 113 37t41 103v262q0 59 -41 96q-43 37 -107 37q-72 0 -112 -35q-43 -37 -43 -94v-264zM950 911v279q0 16 13 27q14 10 30 10q18 0 35 -10q12 -10 12 -27v-279q0 -20 -12 -32q-14 -10 -35 -11q-23 0 -30 11q-13 12 -13 32zM1049 -113v627 h92v-203q16 18 41 33q25 10 43 10q43 0 65 -28q25 -31 25 -86v-256q0 -47 -23 -76q-23 -25 -63 -25q-29 0 -47 8q-25 14 -41 33v-37h-92zM1141 -25q16 -12 22 -16q6 -2 11.5 -3t11.5 -1q18 0 24 10q8 8 9 31v237q0 25 -11 35q-10 12 -28 13q-12 0 -19 -5q-10 -4 -20 -14 v-287zM1231 877q0 -45 18 -70q18 -23 54 -23q29 0 61 17q31 16 59 47v-55h105v510h-105v-388q-8 -10 -15 -16t-15 -12q-20 -10 -31 -10q-14 0 -21 8q-6 8 -6 26v392h-104v-426zM1362 16v209q0 55 39 99q39 37 102 36q63 0 99 -34q33 -35 32 -101v-119h-176v-88q0 -37 8 -47 q8 -14 33 -14q20 0 31 12q10 14 10 49v23h94v-25q0 -72 -35 -104q-35 -37 -102 -37q-66 0 -98 39q-37 36 -37 102zM1458 178h82v47q0 27 -10 41q-10 12 -31 13q-23 0 -31 -13q-10 -10 -10 -41v-47z" />
<glyph unicode="Z" horiz-adv-x="2213" d="M0 -29v1362q0 70 26.5 132.5t73.5 109.5t108.5 73.5t133.5 26.5h1364q70 0 132.5 -26.5t109.5 -73.5t73.5 -109.5t26.5 -132.5v-1362q0 -72 -26.5 -133t-73.5 -108t-109.5 -74t-132.5 -27h-1364q-72 0 -133.5 27t-108.5 74t-73.5 108t-26.5 133zM385 651 q0 -133 50 -249.5t136 -202.5t203 -136.5t250 -50.5t250 50.5t204 136.5t137 202.5t50 249.5t-50 250t-137 204t-204 137t-250 50t-250 -50t-203 -137t-136 -204t-50 -250zM512 651q0 106 40 199.5t109.5 163t163 109.5t199.5 40t199.5 -40t163 -109.5t109.5 -162.5t40 -200 q0 -106 -40 -199.5t-109.5 -163t-163 -109.5t-199.5 -40t-199.5 40t-163 109.5t-109.5 163t-40 199.5zM748 418q4 -41 34 -66q26 -21 61 -21q6 0 11 1q41 4 68 37q23 28 23 63q0 5 -1 10v4v334l256 47v-268q-23 10 -47 6q-41 -4 -69 -37q-24 -29 -24 -63q0 -5 1 -10 q4 -41 35 -66q26 -21 60 -21q6 0 11 1q41 4 68 37q23 28 23 62q0 5 -1 11v4h3v486v2h-3l-370 -64v-385q-23 8 -49 6q-41 -4 -68 -36q-23 -28 -23 -63q0 -6 1 -11z" />
<glyph unicode="[" horiz-adv-x="2256" d="M0 -29v1362q0 70 26.5 132.5t73.5 109.5t108.5 73.5t133.5 26.5h1364q70 0 132.5 -26.5t109.5 -73.5t73.5 -109.5t26.5 -132.5v-1362q0 -72 -26.5 -133t-73.5 -108t-109.5 -74t-132.5 -27h-1364q-72 0 -133.5 27t-108.5 74t-73.5 108t-26.5 133zM403 651 q0 -131 50.5 -246.5t136.5 -201.5t200.5 -135.5t245.5 -49.5t247 49.5t202 135.5t135 201.5t49 246.5t-49 246t-135 201t-202 136t-247 50t-245.5 -50t-200.5 -136t-136.5 -201t-50.5 -246zM571 553v303h123l78 -223h86l78 223h123v-172q2 10 10 31q10 23 24.5 43t32.5 37 q31 33 78 53q45 16 96 16q78 0 134 -37q55 -37 86 -110h-113q-20 27 -49 39t-62 12q-61 0 -104 -43q-39 -41 -41 -92h389v-8v-9q0 -16 -1 -30.5t-3 -26.5q-6 -29 -18 -49q-35 -68 -93 -104q-55 -37 -131 -37q-51 0 -98 20q-47 23 -84 62q-29 31 -45 77q-6 10 -8 23v-172h-92 l2 174h-58l-61 -174h-70l-61 174h-148zM659 725l3 -92h30zM801 553l14 -45l14 45h-28zM938 633h31l2 92zM1163 553q8 -23 29 -43q43 -45 106 -45q43 0 78 24q37 23 54 64h-267z" />
<glyph unicode="\" />
<glyph unicode="]" />
<glyph unicode="^" />
<glyph unicode="_" />
<glyph unicode="`" />
<glyph unicode="a" horiz-adv-x="2213" d="M0 -29v1362q0 70 26.5 132.5t73.5 109.5t108.5 73.5t133.5 26.5h1364q70 0 132.5 -26.5t109.5 -73.5t73.5 -109.5t26.5 -132.5v-1362q0 -72 -26.5 -133t-73.5 -108t-109.5 -74t-132.5 -27h-1364q-72 0 -133.5 27t-108.5 74t-73.5 108t-26.5 133zM244 249q-2 -4 -2 -8 q0 -8 8 -16q154 -139 350.5 -216t423.5 -77q141 0 291.5 39t275.5 111l33 20q16 10 33 23q20 16 8 32.5t-35 6.5q-10 -4 -19 -7t-20 -7q-137 -53 -276 -79t-275 -26q-211 0 -409.5 54.5t-364.5 150.5q-16 10 -22 -1zM672 655q0 -129 72.5 -194.5t177.5 -65.5q72 0 120 15 q41 12 78 37.5t78 70.5q12 -16 21.5 -29.5t18.5 -25.5t22.5 -25.5t33.5 -29.5q27 -10 41 2q29 23 67 55.5t62 54.5q20 18 2 43q-23 31 -43 63.5t-20 92.5v262v81q0 40 -6 77t-21.5 69.5t-46.5 61.5q-49 47 -119.5 65.5t-132.5 18.5h-35q-55 -4 -110 -18.5t-102.5 -44 t-81 -78t-48.5 -115.5q-4 -18 5.5 -25.5t19.5 -9.5l162 -21q14 2 20 11.5t11 19.5q10 49 44.5 73.5t79.5 29.5h11q27 0 52 -10.5t42 -32.5q16 -27 18 -60t2 -63v-23q-29 -4 -60.5 -6t-64.5 -6q-51 -6 -99 -17.5t-91 -29.5q-80 -35 -130 -103t-50 -170zM918 684 q0 70 35.5 105.5t88.5 52.5q29 6 61 8t64 2v-35q0 -51 -4 -92t-28 -86q-35 -59 -93 -76q-4 0 -10 -1t-14 -1q-47 0 -73.5 34t-26.5 89zM1526 211q14 4 30.5 5t34.5 3q33 3 66 3h16q41 -1 53 -17q8 -10 5.5 -35t-11 -53.5t-19.5 -58t-20 -48.5q-4 -10 5 -14q3 -1 5 -1 q6 0 13 5q27 23 46 52.5t31.5 61t18.5 61.5t6 50v11q0 10 -2 16t-4 10q-6 6 -26.5 12.5t-49.5 8.5q-11 1 -24 0q-19 0 -40 -1q-36 -3 -69 -14q-33 -8 -67 -32q-11 -7 -11 -15q0 -10 13 -10z" />
<glyph unicode="b" horiz-adv-x="2213" d="M0 -29v1362q0 70 26.5 132.5t73.5 109.5t108.5 73.5t133.5 26.5h1364q70 0 132.5 -26.5t109.5 -73.5t73.5 -109.5t26.5 -132.5v-1362q0 -72 -26.5 -133t-73.5 -108t-109.5 -74t-132.5 -27h-1364q-72 0 -133.5 27t-108.5 74t-73.5 108t-26.5 133zM449 487 q0 -106 39.5 -199t109.5 -163t163 -110t200 -40h126q106 0 199.5 38t163.5 102.5t109.5 152.5t39.5 187q0 98 -29.5 186t-81.5 152.5t-122 102.5t-149 38h-256q-53 0 -91.5 -37t-38.5 -90t38 -91t92 -38h256q23 0 45 -17.5t40.5 -47t29.5 -70.5t11 -88t-20 -87t-55 -71 t-81 -48.5t-100 -17.5h-126q-53 0 -99.5 20.5t-81.5 55.5t-55 81t-20 99v639q0 53 -38 91t-92 38q-53 0 -89.5 -37.5t-36.5 -91.5v-639z" />
<glyph unicode="c" horiz-adv-x="2213" d="M0 -29v1362q0 70 26.5 132.5t73.5 109.5t108.5 73.5t133.5 26.5h1364q70 0 132.5 -26.5t109.5 -73.5t73.5 -109.5t26.5 -132.5v-1362q0 -72 -26.5 -133t-73.5 -108t-109.5 -74t-132.5 -27h-1364q-72 0 -133.5 27t-108.5 74t-73.5 108t-26.5 133zM319 268q0 -29 18.5 -47 t47.5 -18h391q115 -63 248 -64q133 0 248 64h393q27 0 45.5 18.5t18.5 46.5v768q0 27 -18.5 45.5t-45.5 18.5h-393q-115 63 -248 63t-248 -63h-135q0 27 -19.5 45t-46.5 18h-126q-27 0 -45.5 -17.5t-18.5 -43.5v-2q-29 0 -47.5 -18.5t-18.5 -45.5v-768zM512 651 q0 106 40 199.5t109.5 163t163 109.5t199.5 40t199.5 -40t163 -109.5t109.5 -162.5t40 -200q0 -106 -40 -199.5t-109.5 -163t-163 -109.5t-199.5 -40t-199.5 40t-163 109.5t-109.5 163t-40 199.5zM575 651q0 -92 35 -174t96.5 -143.5t143.5 -96t174 -34.5t174 34.5t143.5 96 t96.5 143.5t35 174t-35 174t-96.5 143.5t-143.5 96.5t-174 35t-174 -35t-143.5 -96.5t-96.5 -143.5t-35 -174zM1024 948v56q74 0 137.5 -28t111.5 -76t75.5 -111.5t27.5 -137.5h-55q0 61 -23.5 115.5t-63.5 94.5t-94.5 63.5t-115.5 23.5z" />
<glyph unicode="d" horiz-adv-x="2213" d="M0 -29v1362q0 70 26.5 132.5t73.5 109.5t108.5 73.5t133.5 26.5h1364q70 0 132.5 -26.5t109.5 -73.5t73.5 -109.5t26.5 -132.5v-1362q0 -72 -26.5 -133t-73.5 -108t-109.5 -74t-132.5 -27h-1364q-72 0 -133.5 27t-108.5 74t-73.5 108t-26.5 133zM319 651h512v367 q-25 23 -57.5 48.5t-67 47t-69.5 35.5t-62 14t-60.5 -14t-68 -35.5t-68.5 -47.5t-59 -48v-367zM385 76h383v127q0 53 -41 91t-100 38h-103q-59 0 -99 -38t-40 -91v-127zM449 139v64q0 27 21.5 46t53.5 19h103q33 0 55.5 -19.5t22.5 -45.5v-64h-256zM512 348h129v287h-129 v-287zM852 651h172v-575h575v573h130v326h-877v-324zM1067 803v172h489v-172h-489zM1087 823h449v449h-449v-449zM1280 76v299h96v-299h-96z" />
<glyph unicode="e" horiz-adv-x="2213" d="M0 -29v1362q0 70 26.5 132.5t73.5 109.5t108.5 73.5t133.5 26.5h1364q70 0 132.5 -26.5t109.5 -73.5t73.5 -109.5t26.5 -132.5v-1362q0 -72 -26.5 -133t-73.5 -108t-109.5 -74t-132.5 -27h-1364q-72 0 -133.5 27t-108.5 74t-73.5 108t-26.5 133zM0 240q53 -16 124 -24.5 t169 -8.5q76 0 139.5 7t114.5 17q51 12 98 35v152h-98h-2h-109q0 -18 -6 -37t-21.5 -34t-43 -24.5t-72.5 -9.5q-55 0 -86 17.5t-44 43t-16.5 55.5t-3.5 54h502v275q-23 10 -47.5 17t-52.5 13q-100 23 -252 23q-98 0 -169 -8t-124 -25v-538zM143 575q0 18 2 41t15.5 44.5 t44.5 36t88 14.5q59 0 91 -13.5t46 -34t16.5 -44t2.5 -44.5h-306zM645 129h174v74h2q25 -49 64 -67.5t92 -18.5q57 0 92 22.5t54.5 59.5t26.5 83t9 91q-72 16 -100.5 74.5t-28.5 134.5q0 66 17.5 107.5t50.5 66.5q-20 20 -49 32.5t-70 12.5q-49 0 -85 -17.5t-65 -58.5h-2 v346h-182v-313q49 -20 78 -49t43 -64t16 -76q1 -20 1 -41.5t-1 -44.5h-137v-65h133q-4 -47 -36.5 -83t-92.5 -67q-2 -2 -4 -2v-137zM645 266q2 0 4 2q59 31 92 67t37 83h-133v-152zM645 483h137q1 23 1 44.5t-1 41.5q-2 41 -16 76t-43 63.5t-78 49.5v-275zM827 465 q0 98 9.5 159.5t64.5 61.5q31 0 47.5 -16.5t22.5 -45t7 -69.5t1 -90q0 -125 -13.5 -180.5t-64.5 -55.5q-47 0 -60.5 55.5t-13.5 180.5zM1030 582q0 -76 28.5 -134.5t100.5 -74.5v90q0 35 -1 76t-6 79.5t-17.5 74.5t-36.5 63q-33 -25 -50.5 -66.5t-17.5 -107.5zM1042 852h185 q0 41 9 71.5t58 30.5q51 0 63.5 -27.5t12.5 -68.5v-53q-27 1 -52 1q-52 0 -100 -5q-73 -8 -120 -45q25 -27 37 -63t17 -74.5t6 -79.5t1 -76v-90q10 -2 22 -2h23q115 0 172 100h2l8 -90h173q-4 33 -6.5 63.5t-2.5 61.5v174l-182 373q-20 2 -40.5 3t-43.5 1q-53 0 -97 -9.5 t-75 -33.5q-33 -23 -51.5 -63t-18.5 -99zM1208 590q0 43 12.5 65.5t34 32.5t51 11t64.5 3q0 -9 0.5 -34.5t0.5 -38.5q0 -33 -6 -63q-7 -34 -26.5 -58.5t-60.5 -24.5q-45 0 -57.5 36t-12.5 71zM1323 1141l45 -88q59 -8 95 -28.5t55.5 -49.5t25.5 -65t6 -74v-156l74 -152v-323 h242v323l182 349v264h-104l-187 -396l-172 396h-262zM1368 1053l182 -373v156q0 39 -6 74.5t-25.5 64.5t-55.5 49.5t-95 28.5z" />
<glyph unicode="f" horiz-adv-x="2213" d="M0 -29v1362q0 70 26.5 132.5t73.5 109.5t108.5 73.5t133.5 26.5h1364q70 0 132.5 -26.5t109.5 -73.5t73.5 -109.5t26.5 -132.5v-1362q0 -72 -26.5 -133t-73.5 -108t-109.5 -74t-132.5 -27h-1364q-72 0 -133.5 27t-108.5 74t-73.5 108t-26.5 133zM768 397h256v-768h319 v768h322v318h-322v164q0 41 21.5 68.5t44.5 27.5h256v317h-256q-80 0 -150.5 -32.5t-123 -90t-82 -133t-29.5 -162.5v-159h-256v-318z" />
<glyph unicode="g" horiz-adv-x="2213" d="M0 -29v1362q0 70 26.5 132.5t73.5 109.5t108.5 73.5t133.5 26.5h1364q70 0 132.5 -26.5t109.5 -73.5t73.5 -109.5t26.5 -132.5v-1362q0 -72 -26.5 -133t-73.5 -108t-109.5 -74t-132.5 -27h-1364q-72 0 -133.5 27t-108.5 74t-73.5 108t-26.5 133zM16 -29q0 -68 26 -127 t70 -103t103 -69.5t127 -25.5h1364q68 0 127 25.5t103 69.5t70 103.5t26 126.5v1362q0 68 -26 127.5t-70 103.5t-103 69.5t-127 25.5h-1364q-68 0 -127 -25.5t-103 -69.5t-70 -103.5t-26 -127.5v-1362zM104 371v653q25 -49 68 -97t100.5 -86t125 -61.5t141.5 -23.5h18 q8 0 18 2q-8 -25 -8 -68q0 -49 14.5 -85t34.5 -64q-45 -4 -101 -10.5t-115.5 -19.5t-119 -33.5t-112.5 -53.5q-10 -6 -33 -26.5t-31 -26.5zM242 139q0 61 24.5 103.5t57 70t66.5 43t52 21.5q41 14 86 22.5t83 11.5t64 4l25 1l2 -2h48q70 -51 120 -90t80.5 -74t45 -70 t14.5 -78q0 -113 -93.5 -179t-254.5 -66q-94 0 -172 20.5t-133.5 57t-85 89t-29.5 115.5zM369 1313q0 109 51 172q8 10 21.5 23.5t30.5 26.5t34.5 23.5t32.5 16.5h106q55 -20 97 -73.5t71 -120t43 -137t14 -126.5q0 -10 -1 -30.5t-6 -44t-16 -48t-32 -45.5q-29 -29 -72 -47 t-84 -18q-78 0 -132 46t-90 111.5t-52 140.5t-16 130zM537 -281q166 0 291.5 42t210.5 110t128 155t43 177q0 66 -17 118t-46 94t-69 76.5t-83 69.5l-92 72q-23 16 -44 41.5t-21 68.5q0 41 22.5 71t48.5 54q14 12 25.5 20.5t22 16.5t20.5 17.5t22 23.5q78 6 144.5 9t146.5 3 h39q162 -4 319.5 -16t311.5 -39v-876q0 -63 -24.5 -118.5t-66.5 -97.5t-98.5 -67t-119.5 -25h-1114zM948 1575h705q63 0 119.5 -24.5t98.5 -66.5t66.5 -98.5t24.5 -119.5v-265q-140 24 -273 24h-30q-147 -3 -270 -7q-68 -2 -117 -6t-88 -9.5t-73 -10.5t-73 -7 q45 47 65.5 102.5t20.5 145.5q0 70 -18.5 125t-46 97t-58 72t-53.5 48z" />
<glyph unicode="h" horiz-adv-x="2213" d="M0 -29v1362q0 70 26.5 132.5t73.5 109.5t108.5 73.5t133.5 26.5h1364q70 0 132.5 -26.5t109.5 -73.5t73.5 -109.5t26.5 -132.5v-1362q0 -72 -26.5 -133t-73.5 -108t-109.5 -74t-132.5 -27h-1364q-72 0 -133.5 27t-108.5 74t-73.5 108t-26.5 133zM520 1075 q12 -29 25.5 -45t36.5 -26q14 -6 32.5 -7.5t26.5 -11.5q6 -8 5 -41t-1 -57q0 -88 3 -156.5t5 -152.5q0 -72 3 -151t12 -148q4 -23 6 -54.5t-6 -42.5q-4 -4 -13.5 -5t-15.5 -5q-23 -6 -44.5 -18.5t-25.5 -32.5q-2 -27 23.5 -54.5t50.5 -33.5q16 -4 27 -5q3 0 8 -1q10 0 24 2 q29 2 69 8t77 17.5t63.5 27.5t30.5 41q4 29 -16.5 52.5t-38.5 29.5q-8 4 -32 3t-32 11q-4 8 -2 28.5t0 33.5q0 14 -3 35.5t-4 43t0 39t7 27.5q12 18 44 27.5t50 13.5q29 8 53.5 15t50 12.5t54.5 9.5t64 8q6 2 25.5 4t39 3t36.5 0t22 -7q4 -4 3 -24.5t-1 -34.5v-66 q0 -14 2 -31.5t3 -35t0 -32t-7 -20.5q-10 -10 -31 -10t-31 -4q-16 -6 -26.5 -14.5t-12.5 -24.5t7.5 -34.5t24.5 -34t32.5 -25.5t33.5 -10q11 -1 23 -1q43 0 88 12q57 15 94 34q16 8 35 13t25 13q7 13 7 29q0 20 -9 38q-8 15 -19.5 26.5t-21.5 15.5t-29.5 2t-26.5 6 q-8 6 -7 39t1 55v516q0 25 -1 53.5t0 55t4 49.5t14 35q4 6 16 11t26.5 11t25.5 13.5t16 15.5q4 14 -1.5 34.5t-14.5 40t-22.5 33t-23.5 13.5h-86q-51 -10 -100 -17.5t-92 -29.5q-10 -6 -23.5 -15.5t-17.5 -19.5q-4 -13 -4 -25q0 -25 17 -45q26 -29 54 -41q8 -4 27.5 -6 t28.5 -10q10 -10 7 -42t-5 -52q-6 -55 -6.5 -100.5t6.5 -102.5q2 -18 6 -49t-11 -43q-6 -4 -20 -7t-31 -4l-32 -2q-16 -1 -27 -1q-41 -4 -74 -9.5t-63.5 -11.5t-62.5 -13t-68 -16q-10 -2 -26.5 -7t-29.5 1q-6 4 -10 28.5t-4 37.5q-3 40 -3 76q0 30 2 57q5 59 5 133 q0 25 1 48.5t5 31.5q6 8 19.5 13t30 9t31.5 9.5t22 15.5q8 12 6 31.5t-6 31.5q-10 33 -34 47.5t-54 17.5q-10 1 -22 1q-22 0 -47 -4q-38 -6 -77 -14q-55 -10 -101 -23.5t-67 -54.5v-23z" />
<glyph unicode="i" horiz-adv-x="2213" d="M0 -29v1362q0 70 26.5 132.5t73.5 109.5t108.5 73.5t133.5 26.5h1364q70 0 132.5 -26.5t109.5 -73.5t73.5 -109.5t26.5 -132.5v-1362q0 -72 -26.5 -133t-73.5 -108t-109.5 -74t-132.5 -27h-1364q-72 0 -133.5 27t-108.5 74t-73.5 108t-26.5 133zM479 1163 q0 -66 47 -112.5t115 -46.5q66 0 113 47t47 112q0 66 -47 113t-113 47q-68 0 -115 -47t-47 -113zM512 12h256v895h-256v-895zM897 12h256v572l104 51q20 10 54.5 9t52.5 -11q14 -8 29.5 -33t15.5 -45v-543h256v543q0 90 -49 174t-127 127q-72 41 -166 44h-15q-85 0 -155 -32 v39h-256v-895z" />
<glyph unicode="j" horiz-adv-x="2213" d="M0 -29v1362q0 70 26.5 132.5t73.5 109.5t108.5 73.5t133.5 26.5h1364q70 0 132.5 -26.5t109.5 -73.5t73.5 -109.5t26.5 -132.5v-1362q0 -72 -26.5 -133t-73.5 -108t-109.5 -74t-132.5 -27h-1364q-72 0 -133.5 27t-108.5 74t-73.5 108t-26.5 133zM567 182q0 -51 36 -87 t87 -36q33 0 62 17l213 -152v-295h118v49l207 152q35 -20 68 -20q51 0 87 35.5t36 86.5t-36 86t-87 35q-53 0 -88 -34.5t-35 -86.5v-14l-152 -108v362l209 150q27 -18 66 -19q51 0 87 36t36 87t-36 87t-87 36q-53 0 -88 -36t-35 -87v-14l-152 -111v342l209 152 q31 -18 66 -19q51 0 87 36t36 87t-36 87t-87 36q-53 0 -88 -36t-35 -87v-16l-152 -111v520h-118v-274l-154 110q2 6 2 23q0 51 -35 87t-88 36q-51 0 -87 -36t-36 -87t36 -87t87 -36q37 0 60 14l215 -155v-340l-154 108q2 8 2 21q0 53 -35 88t-88 35q-51 0 -87 -35t-36 -88 q0 -51 36 -86t87 -35q35 0 62 14l213 -153v-365l-152 111v20q0 51 -35 87t-88 36q-51 0 -87 -36t-36 -87z" />
<glyph unicode="k" horiz-adv-x="2213" d="M0 -29v1362q0 70 26.5 132.5t73.5 109.5t108.5 73.5t133.5 26.5h1364q70 0 132.5 -26.5t109.5 -73.5t73.5 -109.5t26.5 -132.5v-1362q0 -72 -26.5 -133t-73.5 -108t-109.5 -74t-132.5 -27h-1364q-72 0 -133.5 27t-108.5 74t-73.5 108t-26.5 133zM444 287l21 -49l88 -240 l12 -35l37 10q100 23 172 55.5t123 69.5t87 78t65 78q49 -33 98 -70q41 -33 86 -78t76 -100q2 -2 6 -8q4 -4 7 -12.5t9 -18.5l37 25q16 10 42 25.5t54.5 32t56 31.5t48.5 25l35 21l-19 35q-59 133 -133 220t-139 140q47 6 105.5 28.5t135.5 65.5l33 17l-14 37l-84 188 l-19 43l-40 -22l-17 -8q-16 -7 -41.5 -14t-59.5 -12q-19 -3 -39 -3q-16 0 -32 2q82 23 135.5 88t53.5 155q0 53 -19.5 99.5t-54.5 81.5t-81 54t-99 19t-98.5 -19t-80 -54t-54 -81t-19.5 -100q0 -84 51 -153q-51 -35 -85 -80t-55.5 -95t-31.5 -103.5t-15 -104.5 q-4 -27 -5 -37t-1 -14q-33 -68 -80 -108t-91 -61.5t-76.5 -28.5t-34.5 -7zM563 219q29 8 68 24.5t80 45t79.5 71.5t67.5 103q4 8 7 25.5t7 52.5q12 135 51.5 211.5t116.5 121.5q20 -12 41 -21t45 -13v-13q2 -10 3 -18t6 -18l8 -19l18 -6q39 -14 78 -16q13 -1 26 -1 q25 0 49 3q36 4 64.5 12t51.5 18l49 -110q-59 -31 -103.5 -46.5t-80.5 -19.5q-20 -2 -39 -2q-14 0 -27 1q-31 3 -62 7q-8 2 -11 3t-7 1h-6q-18 2 -27.5 -11t-13.5 -32q-2 -6 0 -14q4 -14 18 -22q2 -4 41 -22.5t94.5 -61.5t120 -114t117.5 -177l-127 -74q-12 25 -35.5 56.5 t-61.5 66.5t-91.5 70.5t-124.5 66.5q-10 6 -19 6q-16 0 -28 -12l-21 -27q-27 -35 -56.5 -70.5t-70.5 -69.5t-98.5 -63.5t-138.5 -50.5zM1014 1087q0 68 47 115t115 47t114.5 -47t46.5 -115t-47 -114.5t-114 -46.5q-68 0 -115 46.5t-47 114.5z" />
<glyph unicode="l" horiz-adv-x="2213" d="M0 -29v1362q0 70 26.5 132.5t73.5 109.5t108.5 73.5t133.5 26.5h1364q70 0 132.5 -26.5t109.5 -73.5t73.5 -109.5t26.5 -132.5v-1362q0 -72 -26.5 -133t-73.5 -108t-109.5 -74t-132.5 -27h-1364q-72 0 -133.5 27t-108.5 74t-73.5 108t-26.5 133zM256 641q0 -94 36 -177 t98.5 -145.5t145 -98.5t177.5 -36q109 0 200 45t154 123l-59 135q-41 -80 -119 -129t-176 -49q-68 0 -128.5 26.5t-105.5 72t-71.5 105.5t-26.5 128q0 70 26.5 130t71.5 105.5t105.5 72t128.5 26.5q104 0 185 -55.5t120 -143.5l145 -332l19 -38q47 -104 114.5 -160 t188.5 -58q66 0 122 20.5t97 55.5t64.5 84t23.5 109q0 55 -14.5 95t-43 69.5t-72.5 52t-103 41.5q-43 14 -81 25.5t-65 26.5t-42 37.5t-15 57.5q0 51 35.5 84t89.5 33q39 0 69.5 -16.5t59.5 -55.5l96 49q-72 133 -221 134q-115 0 -181.5 -62.5t-66.5 -167.5q0 -53 17.5 -93 t52 -69.5t85 -53t117.5 -46.5q76 -25 118 -49.5t42 -87.5q0 -66 -52 -111q-48 -41 -124 -41h-14q-86 4 -124 47t-69 115q-25 57 -50.5 116.5l-46.5 108.5l-36 82q-14 33 -16 39q-59 135 -169 209t-255 74q-94 0 -177 -36t-145.5 -98.5t-98.5 -146.5t-36 -178z" />
<glyph unicode="m" horiz-adv-x="2213" d="M0 -29v1362q0 70 26.5 132.5t73.5 109.5t108.5 73.5t133.5 26.5h1364q70 0 132.5 -26.5t109.5 -73.5t73.5 -109.5t26.5 -132.5v-1362q0 -72 -26.5 -133t-73.5 -108t-109.5 -74t-132.5 -27h-1364q-72 0 -133.5 27t-108.5 74t-73.5 108t-26.5 133zM449 190h270v-245h373 v-316h637v594q0 66 -26 124.5t-69 101.5t-101 67.5t-124 24.5t-123 -24.5t-100 -65.5q-20 76 -83 126t-147 50q-53 0 -100 -22.5t-82 -63.5q-14 53 -57 89t-103 36q-70 0 -117.5 -48.5t-47.5 -117.5v-310zM477 866q0 -57 40 -97t97 -40t96.5 40t39.5 97q0 55 -39 95t-97 40 q-57 0 -97 -40t-40 -95zM778 866q0 -76 52.5 -128t125.5 -52q76 0 128.5 52.5t52.5 127.5q0 74 -52.5 126t-128.5 52q-74 0 -126 -52t-52 -126zM1176 866q0 -49 18 -91t50 -73.5t74 -50t91 -18.5t91 18.5t74 50t50 73.5t18 91t-18 91t-50 74t-74 50.5t-91 18.5t-91 -18.5 t-74 -50.5t-50 -74t-18 -91z" />
<glyph unicode="n" horiz-adv-x="2213" d="M0 -29v1362q0 70 26.5 132.5t73.5 109.5t108.5 73.5t133.5 26.5h1364q70 0 132.5 -26.5t109.5 -73.5t73.5 -109.5t26.5 -132.5v-1362q0 -72 -26.5 -133t-73.5 -108t-109.5 -74t-132.5 -27h-1364q-72 0 -133.5 27t-108.5 74t-73.5 108t-26.5 133zM227 321q10 -79 54 -171 l763 221l-208 426q111 27 227 26q100 0 223 -27.5t242 -111.5l-260 -70l-76 140q-53 10 -112 11h-10q-54 0 -114 -9l179 -361l761 221q-53 82 -127.5 137.5t-161.5 91.5t-181.5 54.5t-184.5 26.5q-74 6 -151 5q-144 0 -295 -20q-4 -2 -7.5 -2t-7.5 -2l-80 164l-237 -27 l96 -198q-137 -66 -223 -164q-37 -43 -65.5 -97.5t-41.5 -119.5q-7 -36 -6 -76q-1 -32 4 -68zM472 470q0 25 6 48q7 27 21.5 51.5t30.5 44.5q39 49 99 91l112 -234l-254 -68q-15 34 -15 67z" />
<glyph unicode="o" horiz-adv-x="2213" d="M0 -29v1362q0 70 26.5 132.5t73.5 109.5t108.5 73.5t133.5 26.5h1364q70 0 132.5 -26.5t109.5 -73.5t73.5 -109.5t26.5 -132.5v-1362q0 -72 -26.5 -133t-73.5 -108t-109.5 -74t-132.5 -27h-1364q-72 0 -133.5 27t-108.5 74t-73.5 108t-26.5 133zM256 651 q0 -160 60.5 -299t165 -242.5t243.5 -164t299 -60.5t299 60.5t243.5 164t165 243t60.5 298.5q0 160 -60.5 299.5t-165 243.5t-243.5 164.5t-299 60.5t-299 -60.5t-243.5 -164.5t-165 -243.5t-60.5 -299.5zM385 621q25 -2 46 -3h42q147 0 291.5 25t286.5 76q10 -23 18 -45.5 t18 -44.5q-164 -55 -299 -159.5t-233 -252.5q-78 84 -122 186.5t-48 217.5zM391 750q23 152 113 275.5t227 193.5q154 -180 262 -383q-254 -90 -520 -91q-23 0 -43.5 1.5t-38.5 3.5zM651 131q86 135 209 231.5t270 145.5q37 -111 60.5 -226.5t34.5 -236.5q-96 -33 -201 -33 q-205 0 -373 119zM858 1270q86 23 166 22q127 0 240.5 -47t203.5 -135q-164 -141 -354 -227q-53 102 -116.5 198.5t-139.5 188.5zM1169 768q205 92 383 244q109 -162 113 -359q-123 31 -244 31q-106 0 -209 -20q-10 27 -21.5 52t-21.5 52zM1255 541q43 8 84 12t82 4 q113 0 230 -31q-27 -135 -106 -245.5t-197 -180.5q-12 115 -35 226t-58 215z" />
<glyph unicode="p" horiz-adv-x="2213" d="M0 -29v1362q0 70 26.5 132.5t73.5 109.5t108.5 73.5t133.5 26.5h1364q70 0 132.5 -26.5t109.5 -73.5t73.5 -109.5t26.5 -132.5v-1362q0 -72 -26.5 -133t-73.5 -108t-109.5 -74t-132.5 -27h-1364q-72 0 -133.5 27t-108.5 74t-73.5 108t-26.5 133zM385 1206q4 -72 5 -147.5 t1 -167.5v-1069h160v530l4 10h16l2 -6q43 -72 122 -111.5t177 -39.5q84 0 164 31.5t143.5 96t101.5 164t38 234.5q0 111 -31 202t-85 156.5t-131 101.5t-169 36q-233 0 -346 -187l-6 -4h-14l-11 170h-141zM551 625v174q0 14 4 32.5t10 40.5q25 102 104 166t179 64 q68 0 124 -27.5t97 -78t63.5 -120t22.5 -153.5q0 -180 -85 -287.5t-228 -107.5q-100 0 -178 60.5t-103 158.5q-10 37 -10 78z" />
<glyph unicode="q" horiz-adv-x="2213" d="M0 -29v1362q0 70 26.5 132.5t73.5 109.5t108.5 73.5t133.5 26.5h1364q70 0 132.5 -26.5t109.5 -73.5t73.5 -109.5t26.5 -132.5v-1362q0 -72 -26.5 -133t-73.5 -108t-109.5 -74t-132.5 -27h-1364q-72 0 -133.5 27t-108.5 74t-73.5 108t-26.5 133zM274 649q0 -100 27 -194 q4 4 55.5 50t124 111.5t156.5 142.5t155.5 142.5t121 109.5t53.5 48q-4 2 -25.5 22.5t-52.5 48t-67 59.5t-65.5 59.5t-51 47t-23.5 21.5q-94 -49 -170 -120t-128 -157t-81 -185.5t-29 -205.5zM328 373q45 -115 124.5 -207t184.5 -158v645q-6 -6 -30.5 -28.5t-58.5 -52 t-72 -64.5t-70.5 -63.5t-54 -49t-23.5 -22.5zM717 -33q119 -51 237 -63h138q98 8 188 42t169 88t142.5 126.5t106.5 163.5h-981v-357zM762 1352q4 -4 47 -43t104.5 -94.5t132 -120t133 -120.5t105.5 -96t49 -47v502q-74 33 -151.5 50.5t-157.5 17.5q-68 0 -133.5 -13 t-128.5 -36zM1413 403h320q41 123 41 246q0 199 -96.5 368t-264.5 273v-887z" />
<glyph unicode="r" horiz-adv-x="2213" d="M0 -29v1362q0 70 26.5 132.5t73.5 109.5t108.5 73.5t133.5 26.5h1364q70 0 132.5 -26.5t109.5 -73.5t73.5 -109.5t26.5 -132.5v-1362q0 -72 -26.5 -133t-73.5 -108t-109.5 -74t-132.5 -27h-1364q-72 0 -133.5 27t-108.5 74t-73.5 108t-26.5 133zM371 172q0 -35 13 -66.5 t36.5 -55t55.5 -37t69 -13.5t68.5 13.5t55 37t37 55t13.5 66.5q0 72 -51.5 123t-122.5 51q-72 0 -123 -51t-51 -123zM371 610q123 0 234.5 -46t197.5 -134q86 -86 132 -196.5t46 -233.5h252q0 178 -67.5 335t-185.5 273.5t-274.5 184t-334.5 67.5v-250zM371 1055 q217 0 409.5 -83t336 -226.5t226 -336t82.5 -409.5h252q0 270 -102 507.5t-280.5 415t-416 280t-507.5 102.5v-250z" />
<glyph unicode="s" horiz-adv-x="2213" d="M0 -29q0 -72 26.5 -133t73.5 -108t108.5 -74t133.5 -27h1364q70 0 132.5 27t109.5 74t73.5 108.5t26.5 132.5v1362q0 70 -26.5 132.5t-73.5 109.5t-109.5 73.5t-132.5 26.5h-1364q-72 0 -133.5 -26.5t-108.5 -73.5t-73.5 -109.5t-26.5 -132.5v-1362zM0 139v193h633 q43 0 76 25.5t33 64.5q0 32 -29 57q-31 27 -74 31l-61 2q-59 4 -112.5 29.5t-92.5 65.5t-61.5 92.5t-22.5 111.5t22.5 112.5t62.5 92.5t94 61.5t116 22.5h401q61 0 114.5 -23.5t93.5 -63.5t63.5 -94.5t23.5 -115.5v-369q0 -43 30.5 -72.5t73.5 -29.5h48q43 0 73.5 29.5 t30.5 72.5v1241h170q6 0 11 -1t12 -1v-1239q0 -61 -24 -114.5t-63.5 -93.5t-94 -63.5t-115.5 -23.5h-48q-61 0 -115.5 23.5t-94 63.5t-63.5 93.5t-24 114.5v369q0 43 -28.5 74.5t-71.5 31.5h-401q-43 0 -75 -28.5t-32 -69.5t33 -71.5t76 -34.5l61 -3q61 -4 113.5 -28.5 t91.5 -63.5t60 -90q20 -47 20 -98q0 -61 -27 -116q-25 -50 -65.5 -87t-95 -58.5t-113.5 -21.5h-633z" />
<glyph unicode="t" horiz-adv-x="2213" d="M0 -29v1362q0 70 26.5 132.5t73.5 109.5t108.5 73.5t133.5 26.5h1364q70 0 132.5 -26.5t109.5 -73.5t73.5 -109.5t26.5 -132.5v-1362q0 -72 -26.5 -133t-73.5 -108t-109.5 -74t-132.5 -27h-1364q-72 0 -133.5 27t-108.5 74t-73.5 108t-26.5 133zM512 561q0 -115 40 -214 t109.5 -174t163 -118t197.5 -43h352q66 0 114 47t48 115q0 66 -45 112t-111 46h-352q-39 0 -76 18.5t-64.5 50t-44 72.5t-16.5 88v90h549q66 0 113 47t47 113t-47 113t-113 47h-549v157q0 68 -44 116t-111 48q-66 0 -113 -48t-47 -116v-567z" />
<glyph unicode="u" horiz-adv-x="2213" d="M0 -29v1362q0 70 26.5 132.5t73.5 109.5t108.5 73.5t133.5 26.5h1364q70 0 132.5 -26.5t109.5 -73.5t73.5 -109.5t26.5 -132.5v-1362q0 -72 -26.5 -133t-73.5 -108t-109.5 -74t-132.5 -27h-1364q-72 0 -133.5 27t-108.5 74t-73.5 108t-26.5 133zM342 -362h1364h-1364z M446 1104q0 -152 64.5 -285t179.5 -237l-45 -461l428 256q133 -35 273 -35q209 0 386 72.5t300 197.5v721q0 68 -26 127.5t-70 103.5t-103 69.5t-127 25.5h-975q-131 -104 -208 -246.5t-77 -308.5zM766 1104q0 90 46 171t126 141.5t185.5 96t222.5 35.5q119 0 224 -35.5 t185 -96t126 -141.5t46 -171t-46 -170t-126 -140.5t-185.5 -96t-223.5 -35.5q-117 0 -222.5 35.5t-185.5 96t-126 140.5t-46 170z" />
<glyph unicode="v" horiz-adv-x="2213" d="M0 -29v1362q0 70 26.5 132.5t73.5 109.5t108.5 73.5t133.5 26.5h1364q70 0 132.5 -26.5t109.5 -73.5t73.5 -109.5t26.5 -132.5v-1362q0 -72 -26.5 -133t-73.5 -108t-109.5 -74t-132.5 -27h-1364q-72 0 -133.5 27t-108.5 74t-73.5 108t-26.5 133zM416 893l49 -66 q39 31 64.5 41.5t41.5 10.5q18 0 31 -11q8 -10 23.5 -53t35 -104.5t41 -131t42 -135t38 -117t27.5 -73.5q14 -29 39.5 -60.5t59.5 -51t74 -22.5h8q36 0 75 25q29 18 76 57.5t104.5 94.5t117.5 125t112.5 149.5t93.5 169.5t57 187q6 35 6 65q0 51 -17 87q-28 58 -80 83 q-39 18 -86 19q-16 0 -33 -2q-67 -8 -129 -43t-110.5 -95.5t-62.5 -144.5q45 27 81 27h9q39 -4 60 -31q20 -25 19 -67q0 -46 -28 -97q-53 -100 -98 -159.5t-72 -59.5q-25 0 -47 63.5t-51 180.5q-16 61 -26.5 138t-30 143.5t-53.5 107.5q-27 32 -70 31q-13 0 -27 -3 q-47 -12 -104 -47q-49 -29 -115.5 -84t-144.5 -147z" />
<glyph unicode="w" horiz-adv-x="2213" d="M0 -29v1362q0 70 26.5 132.5t73.5 109.5t108.5 73.5t133.5 26.5h1364q70 0 132.5 -26.5t109.5 -73.5t73.5 -109.5t26.5 -132.5v-1362q0 -72 -26.5 -133t-73.5 -108t-109.5 -74t-132.5 -27h-1364q-72 0 -133.5 27t-108.5 74t-73.5 108t-26.5 133zM201 651 q0 -170 64.5 -319.5t176 -261t262 -176t320.5 -64.5t320.5 64.5t262 176t176 261t64.5 319.5t-64.5 320.5t-176 262.5t-262 176.5t-320.5 64.5t-320.5 -64.5t-262 -176.5t-176 -262.5t-64.5 -320.5zM264 651q0 166 66 310l362 -992q-96 45 -174 115t-135 159t-88 192 t-31 216zM389 1069q102 156 268 249t367 93q150 0 281 -53t233 -146h-10q-57 0 -92 -41t-35 -94q0 -47 22.5 -89t51.5 -89q23 -37 43 -87t20 -122q0 -49 -18.5 -109.5t-40.5 -136.5l-76 -254l-275 818q14 0 29 2q12 2 27.5 2t32.5 4q14 2 21 12t6 21.5t-10 20.5t-24 7 q-47 -4 -83.5 -5t-63.5 -3q-31 -2 -55 -2q-23 0 -54 2q-27 2 -62.5 3t-82.5 5q-16 2 -24.5 -7t-9.5 -21.5t5 -22.5t23 -10q14 -2 29.5 -3t25.5 -3q12 -2 25 -2l118 -324l-165 -500l-279 824q14 0 29 2q12 2 27.5 2t31.5 4q14 2 21.5 12t7.5 21.5t-9.5 20.5t-23.5 7 q-47 -4 -84 -5t-63 -3q-31 -2 -56 -2q-10 0 -23.5 1t-25.5 1zM809 -76l229 660l234 -637q0 -6 4 -10q-117 -43 -252 -43q-115 -1 -215 30zM1407 -4l231 670q29 84 43.5 148.5t14.5 123.5q0 23 -1 41t-3 37q45 -82 68.5 -173t23.5 -192q0 -104 -27.5 -202.5t-77 -182.5 t-119 -152.5t-153.5 -117.5z" />
<glyph unicode="x" horiz-adv-x="2213" d="M0 -29v1362q0 70 26.5 132.5t73.5 109.5t108.5 73.5t133.5 26.5h1364q70 0 132.5 -26.5t109.5 -73.5t73.5 -109.5t26.5 -132.5v-1362q0 -72 -26.5 -133t-73.5 -108t-109.5 -74t-132.5 -27h-1364q-72 0 -133.5 27t-108.5 74t-73.5 108t-26.5 133zM385 651 q0 -133 50 -249.5t136 -202.5t203 -136.5t250 -50.5t250 50.5t204 136.5t137 202.5t50 249.5t-50 250t-137 204t-204 137t-250 50t-250 -50t-203 -137t-136 -204t-50 -250zM512 651q0 106 40 199.5t109.5 163t163 109.5t199.5 40t199.5 -40t163 -109.5t109.5 -162.5t40 -200 q0 -106 -40 -199.5t-109.5 -163t-163 -109.5t-199.5 -40t-199.5 40t-163 109.5t-109.5 163t-40 199.5zM768 588q31 -27 68.5 -64t74.5 -73.5t68 -68.5t45 -50l256 256h-127v383h-256v-383h-129z" />
<glyph unicode="y" horiz-adv-x="2213" d="M0 -29v1362q0 70 26.5 132.5t73.5 109.5t108.5 73.5t133.5 26.5h1364q70 0 132.5 -26.5t109.5 -73.5t73.5 -109.5t26.5 -132.5v-1362q0 -72 -26.5 -133t-73.5 -108t-109.5 -74t-132.5 -27h-1364q-72 0 -133.5 27t-108.5 74t-73.5 108t-26.5 133zM256 1016h203 q20 -16 56 -54t79 -88.5t87 -104.5t81 -102.5t62.5 -83t27.5 -42.5q2 -12 3 -52t1 -84.5t-2 -80t-8 -41.5q-10 -12 -38 -17.5t-58.5 -7.5t-59 -1t-41.5 -1l-12 -63h66q44 0 91.5 1t91.5 2t66 1h101h109h93h52l4 65q-12 2 -44 3t-67 1h-66q-32 0 -40 2q-2 12 -3 53t-2.5 87.5 t-1.5 86.5t3 48q6 16 35.5 47t70.5 67.5t89 76.5t91 72t75 53.5t42 23.5q6 2 15.5 4t19.5 4h112l17 27h2l43 61h-2l4 6h-600l22 -94h164l-276 -248q-20 29 -54 72t-73 93t-79 104.5t-75 103.5h207v71l2 17h-2v6h-684v-94zM1577 201l47 -4l51 -4l15 98l-54 2l-59 8v-100z M1591 795l2 -428l93 -7l106 414q-6 0 -36 3t-63.5 6t-63.5 6.5t-38 5.5z" />
<glyph unicode="z" horiz-adv-x="2213" d="M0 -29v1362q0 70 26.5 132.5t73.5 109.5t108.5 73.5t133.5 26.5h1364q70 0 132.5 -26.5t109.5 -73.5t73.5 -109.5t26.5 -132.5v-1362q0 -72 -26.5 -133t-73.5 -108t-109.5 -74t-132.5 -27h-1364q-72 0 -133.5 27t-108.5 74t-73.5 108t-26.5 133zM641 395q0 -92 35 -174 t96.5 -142.5t142 -95t172.5 -34.5t174 34.5t143.5 95t96.5 142.5t35 174t-35 174t-96.5 143.5t-143 96.5t-174.5 35h-126v-256h126q39 0 75 -15.5t61.5 -41t41 -61.5t15.5 -75q0 -41 -15.5 -75.5t-41 -60.5t-61.5 -41t-75 -15t-73.5 15t-60 41t-41 60.5t-15.5 75.5v897h-256 v-897z" />
<glyph unicode="{" />
<glyph unicode="|" />
<glyph unicode="}" />
<glyph unicode="~" />
<glyph unicode="&#xa0;" />
<glyph unicode="&#xa1;" />
<glyph unicode="&#xa2;" />
<glyph unicode="&#xa3;" />
<glyph unicode="&#xa4;" />
<glyph unicode="&#xa5;" />
<glyph unicode="&#xa6;" />
<glyph unicode="&#xa7;" />
<glyph unicode="&#xa8;" />
<glyph unicode="&#xa9;" />
<glyph unicode="&#xaa;" />
<glyph unicode="&#xab;" />
<glyph unicode="&#xac;" />
<glyph unicode="&#xad;" />
<glyph unicode="&#xae;" />
<glyph unicode="&#xaf;" />
<glyph unicode="&#xb0;" />
<glyph unicode="&#xb1;" />
<glyph unicode="&#xb2;" />
<glyph unicode="&#xb3;" />
<glyph unicode="&#xb4;" />
<glyph unicode="&#xb5;" />
<glyph unicode="&#xb6;" />
<glyph unicode="&#xb7;" />
<glyph unicode="&#xb8;" />
<glyph unicode="&#xb9;" />
<glyph unicode="&#xba;" />
<glyph unicode="&#xbb;" />
<glyph unicode="&#xbc;" />
<glyph unicode="&#xbd;" />
<glyph unicode="&#xbe;" />
<glyph unicode="&#xbf;" />
<glyph unicode="&#xc0;" />
<glyph unicode="&#xc1;" />
<glyph unicode="&#xc2;" />
<glyph unicode="&#xc3;" />
<glyph unicode="&#xc4;" />
<glyph unicode="&#xc5;" />
<glyph unicode="&#xc6;" />
<glyph unicode="&#xc7;" />
<glyph unicode="&#xc8;" />
<glyph unicode="&#xc9;" />
<glyph unicode="&#xca;" />
<glyph unicode="&#xcb;" />
<glyph unicode="&#xcc;" />
<glyph unicode="&#xcd;" />
<glyph unicode="&#xce;" />
<glyph unicode="&#xcf;" />
<glyph unicode="&#xd0;" />
<glyph unicode="&#xd1;" />
<glyph unicode="&#xd2;" />
<glyph unicode="&#xd3;" />
<glyph unicode="&#xd4;" />
<glyph unicode="&#xd5;" />
<glyph unicode="&#xd6;" />
<glyph unicode="&#xd7;" />
<glyph unicode="&#xd8;" />
<glyph unicode="&#xd9;" />
<glyph unicode="&#xda;" />
<glyph unicode="&#xdb;" />
<glyph unicode="&#xdc;" />
<glyph unicode="&#xdd;" />
<glyph unicode="&#xde;" />
<glyph unicode="&#xdf;" />
<glyph unicode="&#xe0;" />
<glyph unicode="&#xe1;" />
<glyph unicode="&#xe2;" />
<glyph unicode="&#xe3;" />
<glyph unicode="&#xe4;" />
<glyph unicode="&#xe5;" />
<glyph unicode="&#xe6;" />
<glyph unicode="&#xe7;" />
<glyph unicode="&#xe8;" />
<glyph unicode="&#xe9;" />
<glyph unicode="&#xea;" />
<glyph unicode="&#xeb;" />
<glyph unicode="&#xec;" />
<glyph unicode="&#xed;" />
<glyph unicode="&#xee;" />
<glyph unicode="&#xef;" />
<glyph unicode="&#xf0;" />
<glyph unicode="&#xf1;" />
<glyph unicode="&#xf2;" />
<glyph unicode="&#xf3;" />
<glyph unicode="&#xf4;" />
<glyph unicode="&#xf5;" />
<glyph unicode="&#xf6;" />
<glyph unicode="&#xf7;" />
<glyph unicode="&#xf8;" />
<glyph unicode="&#xf9;" />
<glyph unicode="&#xfa;" />
<glyph unicode="&#xfb;" />
<glyph unicode="&#xfc;" />
<glyph unicode="&#xfd;" />
<glyph unicode="&#xfe;" />
<glyph unicode="&#xff;" />
<glyph unicode="&#x152;" />
<glyph unicode="&#x153;" />
<glyph unicode="&#x178;" />
<glyph unicode="&#x2c6;" />
<glyph unicode="&#x2dc;" />
<glyph unicode="&#x2000;" horiz-adv-x="837" />
<glyph unicode="&#x2001;" horiz-adv-x="1675" />
<glyph unicode="&#x2002;" horiz-adv-x="837" />
<glyph unicode="&#x2003;" horiz-adv-x="1675" />
<glyph unicode="&#x2004;" horiz-adv-x="557" />
<glyph unicode="&#x2005;" horiz-adv-x="417" />
<glyph unicode="&#x2006;" horiz-adv-x="278" />
<glyph unicode="&#x2007;" horiz-adv-x="278" />
<glyph unicode="&#x2008;" horiz-adv-x="208" />
<glyph unicode="&#x2009;" horiz-adv-x="333" />
<glyph unicode="&#x200a;" horiz-adv-x="92" />
<glyph unicode="&#x2010;" />
<glyph unicode="&#x2011;" />
<glyph unicode="&#x2012;" />
<glyph unicode="&#x2013;" />
<glyph unicode="&#x2014;" />
<glyph unicode="&#x2018;" />
<glyph unicode="&#x2019;" horiz-adv-x="2256" d="M0 -29v1362q0 70 26.5 132.5t73.5 109.5t108.5 73.5t133.5 26.5h1364q70 0 132.5 -26.5t109.5 -73.5t73.5 -109.5t26.5 -132.5v-1362q0 -72 -26.5 -133t-73.5 -108t-109.5 -74t-132.5 -27h-1364q-72 0 -133.5 27t-108.5 74t-73.5 108t-26.5 133zM403 651 q0 -131 50.5 -246.5t136.5 -201.5t200.5 -135.5t245.5 -49.5t247 49.5t202 135.5t135 201.5t49 246.5t-49 246t-135 201t-202 136t-247 50t-245.5 -50t-200.5 -136t-136.5 -201t-50.5 -246zM571 553v303h123l78 -223h86l78 223h123v-172q2 10 10 31q10 23 24.5 43t32.5 37 q31 33 78 53q45 16 96 16q78 0 134 -37q55 -37 86 -110h-113q-20 27 -49 39t-62 12q-61 0 -104 -43q-39 -41 -41 -92h389v-8v-9q0 -16 -1 -30.5t-3 -26.5q-6 -29 -18 -49q-35 -68 -93 -104q-55 -37 -131 -37q-51 0 -98 20q-47 23 -84 62q-29 31 -45 77q-6 10 -8 23v-172h-92 l2 174h-58l-61 -174h-70l-61 174h-148zM659 725l3 -92h30zM801 553l14 -45l14 45h-28zM938 633h31l2 92zM1163 553q8 -23 29 -43q43 -45 106 -45q43 0 78 24q37 23 54 64h-267z" />
<glyph unicode="&#x201a;" />
<glyph unicode="&#x201c;" />
<glyph unicode="&#x201d;" />
<glyph unicode="&#x201e;" />
<glyph unicode="&#x2022;" />
<glyph unicode="&#x2026;" />
<glyph unicode="&#x202f;" horiz-adv-x="333" />
<glyph unicode="&#x2039;" />
<glyph unicode="&#x203a;" />
<glyph unicode="&#x205f;" horiz-adv-x="417" />
<glyph unicode="&#x20ac;" />
<glyph unicode="&#x2122;" />
<glyph unicode="&#xe000;" horiz-adv-x="1675" d="M0 1675h1675v-1675h-1675v1675z" />
<glyph unicode="&#xfb01;" horiz-adv-x="4427" d="M2214 -29v1362q0 70 26.5 132.5t73.5 109.5t108.5 73.5t133.5 26.5h1364q70 0 132.5 -26.5t109.5 -73.5t73.5 -109.5t26.5 -132.5v-1362q0 -72 -26.5 -133t-73.5 -108t-109.5 -74t-132.5 -27h-1364q-72 0 -133.5 27t-108.5 74t-73.5 108t-26.5 133zM2693 1163 q0 -66 47 -112.5t115 -46.5q66 0 113 47t47 112q0 66 -47 113t-113 47q-68 0 -115 -47t-47 -113zM2726 12h256v895h-256v-895zM3111 12h256v572l104 51q20 10 54.5 9t52.5 -11q14 -8 29.5 -33t15.5 -45v-543h256v543q0 90 -49 174t-127 127q-72 41 -166 44h-15 q-85 0 -155 -32v39h-256v-895zM0 -29v1362q0 70 26.5 132.5t73.5 109.5t108.5 73.5t133.5 26.5h1364q70 0 132.5 -26.5t109.5 -73.5t73.5 -109.5t26.5 -132.5v-1362q0 -72 -26.5 -133t-73.5 -108t-109.5 -74t-132.5 -27h-1364q-72 0 -133.5 27t-108.5 74t-73.5 108 t-26.5 133zM768 397h256v-768h319v768h322v318h-322v164q0 41 21.5 68.5t44.5 27.5h256v317h-256q-80 0 -150.5 -32.5t-123 -90t-82 -133t-29.5 -162.5v-159h-256v-318z" />
<glyph unicode="&#xfb02;" horiz-adv-x="4427" d="M2214 -29v1362q0 70 26.5 132.5t73.5 109.5t108.5 73.5t133.5 26.5h1364q70 0 132.5 -26.5t109.5 -73.5t73.5 -109.5t26.5 -132.5v-1362q0 -72 -26.5 -133t-73.5 -108t-109.5 -74t-132.5 -27h-1364q-72 0 -133.5 27t-108.5 74t-73.5 108t-26.5 133zM2470 641 q0 -94 36 -177t98.5 -145.5t145 -98.5t177.5 -36q109 0 200 45t154 123l-59 135q-41 -80 -119 -129t-176 -49q-68 0 -128.5 26.5t-105.5 72t-71.5 105.5t-26.5 128q0 70 26.5 130t71.5 105.5t105.5 72t128.5 26.5q104 0 185 -55.5t120 -143.5l145 -332l19 -38 q47 -104 114.5 -160t188.5 -58q66 0 122 20.5t97 55.5t64.5 84t23.5 109q0 55 -14.5 95t-43 69.5t-72.5 52t-103 41.5q-43 14 -81 25.5t-65 26.5t-42 37.5t-15 57.5q0 51 35.5 84t89.5 33q39 0 69.5 -16.5t59.5 -55.5l96 49q-72 133 -221 134q-115 0 -181.5 -62.5 t-66.5 -167.5q0 -53 17.5 -93t52 -69.5t85 -53t117.5 -46.5q76 -25 118 -49.5t42 -87.5q0 -66 -52 -111q-48 -41 -124 -41h-14q-86 4 -124 47t-69 115q-25 57 -50.5 116.5l-46.5 108.5l-36 82q-14 33 -16 39q-59 135 -169 209t-255 74q-94 0 -177 -36t-145.5 -98.5 t-98.5 -146.5t-36 -178zM0 -29v1362q0 70 26.5 132.5t73.5 109.5t108.5 73.5t133.5 26.5h1364q70 0 132.5 -26.5t109.5 -73.5t73.5 -109.5t26.5 -132.5v-1362q0 -72 -26.5 -133t-73.5 -108t-109.5 -74t-132.5 -27h-1364q-72 0 -133.5 27t-108.5 74t-73.5 108t-26.5 133z M768 397h256v-768h319v768h322v318h-322v164q0 41 21.5 68.5t44.5 27.5h256v317h-256q-80 0 -150.5 -32.5t-123 -90t-82 -133t-29.5 -162.5v-159h-256v-318z" />
<glyph unicode="&#xfb03;" horiz-adv-x="6641" d="M4428 -29v1362q0 70 26.5 132.5t73.5 109.5t108.5 73.5t133.5 26.5h1364q70 0 132.5 -26.5t109.5 -73.5t73.5 -109.5t26.5 -132.5v-1362q0 -72 -26.5 -133t-73.5 -108t-109.5 -74t-132.5 -27h-1364q-72 0 -133.5 27t-108.5 74t-73.5 108t-26.5 133zM4907 1163 q0 -66 47 -112.5t115 -46.5q66 0 113 47t47 112q0 66 -47 113t-113 47q-68 0 -115 -47t-47 -113zM4940 12h256v895h-256v-895zM5325 12h256v572l104 51q20 10 54.5 9t52.5 -11q14 -8 29.5 -33t15.5 -45v-543h256v543q0 90 -49 174t-127 127q-72 41 -166 44h-15 q-85 0 -155 -32v39h-256v-895zM2214 -29v1362q0 70 26.5 132.5t73.5 109.5t108.5 73.5t133.5 26.5h1364q70 0 132.5 -26.5t109.5 -73.5t73.5 -109.5t26.5 -132.5v-1362q0 -72 -26.5 -133t-73.5 -108t-109.5 -74t-132.5 -27h-1364q-72 0 -133.5 27t-108.5 74t-73.5 108 t-26.5 133zM2982 397h256v-768h319v768h322v318h-322v164q0 41 21.5 68.5t44.5 27.5h256v317h-256q-80 0 -150.5 -32.5t-123 -90t-82 -133t-29.5 -162.5v-159h-256v-318zM0 -29v1362q0 70 26.5 132.5t73.5 109.5t108.5 73.5t133.5 26.5h1364q70 0 132.5 -26.5t109.5 -73.5 t73.5 -109.5t26.5 -132.5v-1362q0 -72 -26.5 -133t-73.5 -108t-109.5 -74t-132.5 -27h-1364q-72 0 -133.5 27t-108.5 74t-73.5 108t-26.5 133zM768 397h256v-768h319v768h322v318h-322v164q0 41 21.5 68.5t44.5 27.5h256v317h-256q-80 0 -150.5 -32.5t-123 -90t-82 -133 t-29.5 -162.5v-159h-256v-318z" />
<glyph unicode="&#xfb04;" horiz-adv-x="6641" d="M4428 -29v1362q0 70 26.5 132.5t73.5 109.5t108.5 73.5t133.5 26.5h1364q70 0 132.5 -26.5t109.5 -73.5t73.5 -109.5t26.5 -132.5v-1362q0 -72 -26.5 -133t-73.5 -108t-109.5 -74t-132.5 -27h-1364q-72 0 -133.5 27t-108.5 74t-73.5 108t-26.5 133zM4684 641 q0 -94 36 -177t98.5 -145.5t145 -98.5t177.5 -36q109 0 200 45t154 123l-59 135q-41 -80 -119 -129t-176 -49q-68 0 -128.5 26.5t-105.5 72t-71.5 105.5t-26.5 128q0 70 26.5 130t71.5 105.5t105.5 72t128.5 26.5q104 0 185 -55.5t120 -143.5l145 -332l19 -38 q47 -104 114.5 -160t188.5 -58q66 0 122 20.5t97 55.5t64.5 84t23.5 109q0 55 -14.5 95t-43 69.5t-72.5 52t-103 41.5q-43 14 -81 25.5t-65 26.5t-42 37.5t-15 57.5q0 51 35.5 84t89.5 33q39 0 69.5 -16.5t59.5 -55.5l96 49q-72 133 -221 134q-115 0 -181.5 -62.5 t-66.5 -167.5q0 -53 17.5 -93t52 -69.5t85 -53t117.5 -46.5q76 -25 118 -49.5t42 -87.5q0 -66 -52 -111q-48 -41 -124 -41h-14q-86 4 -124 47t-69 115q-25 57 -50.5 116.5l-46.5 108.5l-36 82q-14 33 -16 39q-59 135 -169 209t-255 74q-94 0 -177 -36t-145.5 -98.5 t-98.5 -146.5t-36 -178zM2214 -29v1362q0 70 26.5 132.5t73.5 109.5t108.5 73.5t133.5 26.5h1364q70 0 132.5 -26.5t109.5 -73.5t73.5 -109.5t26.5 -132.5v-1362q0 -72 -26.5 -133t-73.5 -108t-109.5 -74t-132.5 -27h-1364q-72 0 -133.5 27t-108.5 74t-73.5 108t-26.5 133z M2982 397h256v-768h319v768h322v318h-322v164q0 41 21.5 68.5t44.5 27.5h256v317h-256q-80 0 -150.5 -32.5t-123 -90t-82 -133t-29.5 -162.5v-159h-256v-318zM0 -29v1362q0 70 26.5 132.5t73.5 109.5t108.5 73.5t133.5 26.5h1364q70 0 132.5 -26.5t109.5 -73.5t73.5 -109.5 t26.5 -132.5v-1362q0 -72 -26.5 -133t-73.5 -108t-109.5 -74t-132.5 -27h-1364q-72 0 -133.5 27t-108.5 74t-73.5 108t-26.5 133zM768 397h256v-768h319v768h322v318h-322v164q0 41 21.5 68.5t44.5 27.5h256v317h-256q-80 0 -150.5 -32.5t-123 -90t-82 -133t-29.5 -162.5 v-159h-256v-318z" />
</font>
</defs>
</svg>
